<svg class="animated" id="freepik_stories-uploading" xmlns="http://www.w3.org/2000/svg" viewBox="0 0 500 500" version="1.1" xmlns:xlink="http://www.w3.org/1999/xlink" xmlns:svgjs="http://svgjs.com/svgjs"><style>svg#freepik_stories-uploading:not(.animated) .animable {opacity: 0;}svg#freepik_stories-uploading.animated #freepik--Desk--inject-87 {animation: 1s 1 forwards cubic-bezier(.36,-0.01,.5,1.38) slideUp;animation-delay: 0s;}svg#freepik_stories-uploading.animated #freepik--Floor--inject-87 {animation: 1s 1 forwards cubic-bezier(.36,-0.01,.5,1.38) slideUp;animation-delay: 0s;}svg#freepik_stories-uploading.animated #freepik--Files--inject-87 {animation: 1s 1 forwards cubic-bezier(.36,-0.01,.5,1.38) slideDown;animation-delay: 0s;}            @keyframes slideUp {                0% {                    opacity: 0;                    transform: translateY(30px);                }                100% {                    opacity: 1;                    transform: inherit;                }            }                    @keyframes slideDown {                0% {                    opacity: 0;                    transform: translateY(-30px);                }                100% {                    opacity: 1;                    transform: translateY(0);                }            }        </style><g id="freepik--background-complete--inject-87" class="animable" style="transform-origin: 261.97px 255.848px;"><rect x="364.13" y="130.51" width="73.59" height="76.71" style="fill: rgb(224, 224, 224); transform-origin: 400.925px 168.865px;" id="elmyov2ga4vpi" class="animable"></rect><rect x="359.15" y="130.51" width="73.58" height="76.71" style="fill: rgb(250, 250, 250); transform-origin: 395.94px 168.865px;" id="el0cxlkqhsfjoe" class="animable"></rect><path d="M432.76,207.24H359.13V130.49h73.63Zm-73.59-.05h73.54V130.53H359.17Z" style="fill: rgb(224, 224, 224); transform-origin: 395.945px 168.865px;" id="el4xdjdln882s" class="animable"></path><rect x="369.04" y="140.82" width="53.8" height="56.08" style="fill: rgb(255, 255, 255); transform-origin: 395.94px 168.86px;" id="el4qmalkl74t4" class="animable"></rect><path d="M369,197.28a9.21,9.21,0,0,1-1.33,1.54c-.86.91-2.06,2.14-3.42,3.47s-2.6,2.52-3.51,3.36a8.61,8.61,0,0,1-1.56,1.3,8.8,8.8,0,0,1,1.32-1.54c.86-.91,2.07-2.14,3.43-3.47s2.6-2.53,3.52-3.37A8.28,8.28,0,0,1,369,197.28Z" style="fill: rgb(224, 224, 224); transform-origin: 364.09px 202.115px;" id="elp35r41tcd1" class="animable"></path><path d="M422.84,197.14a9,9,0,0,1,1.55,1.33c.9.86,2.13,2.06,3.46,3.42s2.52,2.6,3.37,3.51a8.24,8.24,0,0,1,1.29,1.56,8.8,8.8,0,0,1-1.54-1.32c-.9-.86-2.13-2.07-3.47-3.43s-2.53-2.6-3.37-3.52A8.82,8.82,0,0,1,422.84,197.14Z" style="fill: rgb(224, 224, 224); transform-origin: 427.675px 202.05px;" id="elaup92ndp5xo" class="animable"></path><path d="M422.69,141a8.76,8.76,0,0,1,1.33-1.54c.86-.91,2.07-2.14,3.42-3.47s2.6-2.52,3.52-3.36a7.91,7.91,0,0,1,1.55-1.3,8.27,8.27,0,0,1-1.32,1.54c-.86.9-2.07,2.14-3.43,3.47s-2.6,2.53-3.52,3.37A7.92,7.92,0,0,1,422.69,141Z" style="fill: rgb(224, 224, 224); transform-origin: 427.6px 136.165px;" id="el4vojz0vmfwg" class="animable"></path><path d="M368.89,141.11a9.21,9.21,0,0,1-1.54-1.33c-.91-.86-2.13-2.07-3.47-3.42s-2.52-2.6-3.36-3.51a8.61,8.61,0,0,1-1.3-1.56,8.8,8.8,0,0,1,1.54,1.32c.91.86,2.14,2.07,3.47,3.43s2.53,2.6,3.37,3.52A8.28,8.28,0,0,1,368.89,141.11Z" style="fill: rgb(224, 224, 224); transform-origin: 364.055px 136.2px;" id="elpisvlyumbvl" class="animable"></path><path d="M422.69,196.9s0-.09,0-.27,0-.45,0-.78c0-.7,0-1.71,0-3,0-2.65,0-6.52-.06-11.43,0-9.82-.06-23.81-.1-40.57l.2.21-53.64,0h0l.24-.24c0,20.59,0,39.84,0,56.08l-.2-.2,38.85.1,10.91.06,2.89,0h1s-.07,0-.23,0h-.73l-2.84,0L408,197l-39,.1h-.2v-.21c0-16.24,0-35.49,0-56.08v-.24h.25l53.64,0h.21v.21c0,16.81-.08,30.85-.1,40.7,0,4.89-.05,8.74-.06,11.39,0,1.29,0,2.29,0,3,0,.32,0,.57,0,.76S422.7,196.91,422.69,196.9Z" style="fill: rgb(224, 224, 224); transform-origin: 395.85px 168.835px;" id="elyllasjtzj1a" class="animable"></path><rect x="386.96" y="159.89" width="17.95" height="17.95" style="fill: rgb(235, 235, 235); transform-origin: 395.935px 168.865px;" id="elrlg6nq9xmw" class="animable"></rect><rect x="296.06" y="45.36" width="68.35" height="71.25" style="fill: rgb(224, 224, 224); transform-origin: 330.235px 80.985px;" id="elamz2p6envld" class="animable"></rect><rect x="291.43" y="45.36" width="68.35" height="71.25" style="fill: rgb(250, 250, 250); transform-origin: 325.605px 80.985px;" id="eldvn7qajkzz" class="animable"></rect><path d="M359.8,116.63H291.41V45.34H359.8Zm-68.35,0h68.31V45.38H291.45Z" style="fill: rgb(224, 224, 224); transform-origin: 325.605px 80.985px;" id="ellixbgupv6ps" class="animable"></path><rect x="300.62" y="54.94" width="49.98" height="52.1" style="fill: rgb(255, 255, 255); transform-origin: 325.61px 80.99px;" id="elrp72oh7sa6m" class="animable"></rect><path d="M300.62,107.38a8.71,8.71,0,0,1-1.24,1.43c-.8.85-1.92,2-3.17,3.22s-2.42,2.35-3.27,3.13a7.77,7.77,0,0,1-1.44,1.2,7.66,7.66,0,0,1,1.22-1.43c.8-.84,1.93-2,3.19-3.22s2.42-2.35,3.27-3.13A7.29,7.29,0,0,1,300.62,107.38Z" style="fill: rgb(224, 224, 224); transform-origin: 296.06px 111.87px;" id="el37p4kss9x4n" class="animable"></path><path d="M350.59,107.25a8.13,8.13,0,0,1,1.43,1.24c.85.79,2,1.92,3.23,3.17s2.34,2.42,3.12,3.27a7.77,7.77,0,0,1,1.2,1.44,8.37,8.37,0,0,1-1.42-1.23c-.85-.79-2-1.92-3.23-3.18s-2.35-2.42-3.13-3.27A7.29,7.29,0,0,1,350.59,107.25Z" style="fill: rgb(224, 224, 224); transform-origin: 355.08px 111.81px;" id="el3va7r3basq3" class="animable"></path><path d="M350.45,55.08a8.36,8.36,0,0,1,1.24-1.44c.8-.84,1.92-2,3.17-3.22s2.42-2.34,3.27-3.12a7.29,7.29,0,0,1,1.44-1.2,8,8,0,0,1-1.22,1.42c-.8.84-1.93,2-3.19,3.23s-2.42,2.35-3.27,3.13A8.33,8.33,0,0,1,350.45,55.08Z" style="fill: rgb(224, 224, 224); transform-origin: 355.01px 50.59px;" id="el7rdkma7ytwm" class="animable"></path><path d="M300.48,55.21A9,9,0,0,1,299,54c-.84-.8-2-1.92-3.22-3.17s-2.34-2.42-3.12-3.27a7.77,7.77,0,0,1-1.2-1.44,7.46,7.46,0,0,1,1.42,1.22c.85.8,2,1.93,3.23,3.19s2.35,2.42,3.13,3.27A7.77,7.77,0,0,1,300.48,55.21Z" style="fill: rgb(224, 224, 224); transform-origin: 295.97px 50.665px;" id="elk3ps042859" class="animable"></path><path d="M350.45,107s0-.09,0-.25,0-.42,0-.73c0-.65,0-1.59,0-2.81,0-2.47,0-6.06-.05-10.62,0-9.12-.06-22.12-.1-37.68l.19.19-49.83,0h0l.22-.22c0,19.12,0,37,0,52.09l-.19-.19,36.08.1,10.14,0,2.68,0h.93s-.07,0-.22,0l-.67,0-2.64,0-10.1,0-36.2.09h-.19V107c0-15.08,0-33,0-52.09v-.22h.23l49.83,0h.2v.19c0,15.61-.08,28.65-.1,37.81,0,4.54,0,8.11-.05,10.57,0,1.2,0,2.13,0,2.78,0,.3,0,.53,0,.7S350.46,107,350.45,107Z" style="fill: rgb(224, 224, 224); transform-origin: 325.63px 80.845px;" id="elsz7qsgsx1xn" class="animable"></path><rect x="317.26" y="72.65" width="16.68" height="16.68" style="fill: rgb(235, 235, 235); transform-origin: 325.6px 80.99px;" id="el5eavhw28b9x" class="animable"></rect><path d="M66.29,464.76c-1.65-1.41-5.32-5.88-2.49-11.09,1-1.91,3.24-2.85,5.24-3.69a21.08,21.08,0,0,0,5.75-3c3.11-2.65,4-7.05,6-10.59,2.38-4.06,6.81-7.1,11.49-6.89,5.37.24,9.84,4.62,11.86,9.62s2.1,10.54,2.14,15.93c0,3-.1,6.34-2.29,8.36-2,1.85-5.06,1.88-7.8,1.79l-29.3-.9" style="fill: rgb(245, 245, 245); transform-origin: 84.5205px 447.358px;" id="elpje6ksmd9aa" class="animable"></path><path d="M122.34,384.18H45.27L59.15,467a9.24,9.24,0,0,0,6.58,7.37l.27.07c.23.06.45.14.69.18a9,9,0,0,0,1.56.18l0,.08.37-.06H103a9.77,9.77,0,0,0,1.89-.19,9.29,9.29,0,0,0,7.8-8.09l6.69-57,.3-2.27h0l2.65-22.59ZM107.8,437H99.89l.8-24h9.16Zm2.82-24h7.57l-2.82,24h-6.8ZM88,463.62l-.48-20.88H98.93l-.69,20.88ZM75.71,442.74H86.78l.48,20.88H77.33Zm.85,20.88H67.29c-.89-5.64-2-13-3.27-20.88H74.94ZM75.26,437l-1.87-24h12.7l.55,24Zm12.15,0-.55-24H99.92l-.8,24Zm-.69-29.78L86.21,385h14.64l-.74,22.25Zm-.76,0H73L71.22,385H85.45Zm-13.78,0H58.41c-.48-3.08-.95-6-1.36-8.6-1.44-9-2-12.38-2.28-13.65H70.45Zm.45,5.76,1.87,24H63.11c-.38-2.43-.77-4.9-1.16-7.37-.89-5.67-1.78-11.34-2.62-16.65ZM62.34,437H54.9l-4-24h7.68C59.73,420.38,61,428.65,62.34,437Zm.9,5.76c1.14,7.23,2.25,14.35,3.27,20.88H59.37l-3.5-20.88ZM99,463.62l.7-20.88h7.61l-1.79,20.88Zm1.88-56.42.74-22.25h10.62l-1.9,22.25ZM54,385c.31,1.61,1.72,10.36,3.6,22.25H49.9L46.17,385Zm58.21,78.67h-6l1.78-20.88h6.63Zm6.62-56.42h-7.76L113,385h8.47Z" style="fill: rgb(224, 224, 224); transform-origin: 83.805px 429.53px;" id="elgijnn7t0d8c" class="animable"></path><path d="M422.05,378.82c-5.15-2.65-11.2-3-16.91-2.05-3.07.5-6.27,1.42-8.36,3.73s-2.48,6.36-.08,8.34c1.42,1.17,3.41,1.35,5.26,1.33,4.47-.05,9.43-.84,13,1.85,2,1.54,3.4,4.09,5.83,4.84s5.08-.67,6.34-2.82a9.85,9.85,0,0,0,.72-7.26A11.09,11.09,0,0,0,422.05,378.82Z" style="fill: rgb(235, 235, 235); transform-origin: 411.643px 386.676px;" id="elyib2rapg6ua" class="animable"></path><path d="M433.83,356.07c-3.15,4.5-9.26,3-12.09.27s-4-6.72-5.12-10.51c-2.5-8.65-5-17.74-3.16-26.55a14.72,14.72,0,0,1,3.4-7.22,7.72,7.72,0,0,1,7.3-2.44c3.08.82,5,3.84,6.38,6.71a63.28,63.28,0,0,1,6.26,27.17c0,4.37-.5,9-3,12.57" style="fill: rgb(235, 235, 235); transform-origin: 424.813px 334.201px;" id="eloj6o0gzo129" class="animable"></path><path d="M442.47,362.52c-3.42-4-4.07-10-2.55-15s4.95-9.4,8.91-12.92a47.86,47.86,0,0,1,15.95-9.41,16.77,16.77,0,0,1,7.18-1.22,7.52,7.52,0,0,1,6,3.64c1.68,3.2.07,7.08-1.67,10.25a122.91,122.91,0,0,1-10.48,16c-3.14,4.05-6.74,8-11.53,9.87s-9.75,1.61-12.29-1.7" style="fill: rgb(235, 235, 235); transform-origin: 458.907px 344.421px;" id="eldoz51jiqixk" class="animable"></path><path d="M434,423.83a9.75,9.75,0,0,1-.28-2c-.15-1.48-.33-3.35-.54-5.57a81.39,81.39,0,0,0-1.26-8.17,62.55,62.55,0,0,0-3-9.64,35.79,35.79,0,0,0-4.92-8.73,18.46,18.46,0,0,0-6.23-5.17,17.54,17.54,0,0,0-5.24-1.64,9.52,9.52,0,0,1-2-.29,9.19,9.19,0,0,1,2.07,0A15.84,15.84,0,0,1,418.1,384a18.34,18.34,0,0,1,6.57,5.22,34.66,34.66,0,0,1,5.1,8.9,58.87,58.87,0,0,1,3,9.8,69.68,69.68,0,0,1,1.09,8.28c.18,2.36.24,4.28.27,5.6A9.4,9.4,0,0,1,434,423.83Z" style="fill: rgb(224, 224, 224); transform-origin: 422.335px 403.196px;" id="el1on6755zt98" class="animable"></path><path d="M433.66,419.55a4,4,0,0,1-.06-.95c0-.71,0-1.61,0-2.71,0-2.35,0-5.75-.12-9.95-.21-8.4-.93-17.44-2.33-30.19-1.32-12-3.1-25.93-5-35-.4-2.06-.81-3.92-1.19-5.54s-.67-3-1-4.17-.47-1.94-.63-2.63a3.85,3.85,0,0,1-.17-.94,4.21,4.21,0,0,1,.33.89c.21.68.47,1.54.79,2.6s.7,2.52,1.11,4.14.87,3.47,1.31,5.53A305.64,305.64,0,0,1,432,373.11c1.4,12.77,2,24.4,2.09,32.82.05,4.21,0,7.62-.15,10-.07,1.1-.12,2-.17,2.71A3.78,3.78,0,0,1,433.66,419.55Z" style="fill: rgb(224, 224, 224); transform-origin: 428.634px 373.51px;" id="elhhhdr0ysqg6" class="animable"></path><path d="M433.6,397.12a17.57,17.57,0,0,1,0-2.83c.11-1.82.36-4.45.87-7.67A100.52,100.52,0,0,1,437,375.46a91.62,91.62,0,0,1,4.67-13.22,70.39,70.39,0,0,1,13.71-21.35,34.12,34.12,0,0,1,3.23-3c.5-.42.93-.84,1.38-1.17l1.25-.86a20.53,20.53,0,0,1,2.38-1.53c.14.19-3.37,2.25-7.8,7a74,74,0,0,0-13.38,21.28,104.75,104.75,0,0,0-4.69,13.09,113.66,113.66,0,0,0-2.66,11.06c-.58,3.18-.92,5.78-1.12,7.58A18,18,0,0,1,433.6,397.12Z" style="fill: rgb(224, 224, 224); transform-origin: 448.584px 365.725px;" id="eloq6b5w1etae" class="animable"></path><polygon points="455.28 436.68 453.03 467.47 413.48 467.47 411.23 436.68 455.28 436.68" style="fill: rgb(224, 224, 224); transform-origin: 433.255px 452.075px;" id="el844a6jan53s" class="animable"></polygon><rect x="406.51" y="424.55" width="52.59" height="12.14" style="fill: rgb(224, 224, 224); transform-origin: 432.805px 430.62px;" id="elh5tcv2mj314" class="animable"></rect><polygon points="459.1 466.3 459.1 469.66 456.63 469.66 407.38 469.66 407.38 466.3 459.1 466.3" style="fill: rgb(235, 235, 235); transform-origin: 433.24px 467.98px;" id="elsh33i6hi4g" class="animable"></polygon><polygon points="454.21 475.58 456.63 469.66 409.26 469.66 412.09 475.58 454.21 475.58" style="fill: rgb(224, 224, 224); transform-origin: 432.945px 472.62px;" id="elon3uxms6id" class="animable"></polygon><path d="M412,446.75s.06.1.19.28l.59.78,2.3,2.95.11.13.1-.13c1.44-2,3.38-4.68,5.66-7.83h-.33c1.69,2.38,3.56,5,5.57,7.89l.18.25.2-.24,6.61-7.86h-.39l.37.46,5.91,7.41.2.25.18-.26,5.57-7.89h-.32l6.87,7.83.12.14.09-.16,2.15-3.61c.23-.39.41-.71.55-1a1.14,1.14,0,0,0,.17-.35,1.85,1.85,0,0,0-.23.31l-.61.93-2.25,3.54.21,0L445,442.67l-.17-.2-.15.22c-1.71,2.39-3.6,5-5.63,7.85h.38l-5.9-7.42-.36-.45-.19-.24-.19.23-6.59,7.88.37,0-5.63-7.86-.17-.23-.16.23L415,450.61h.2l-2.4-2.87-.64-.74Q412,446.74,412,446.75Z" style="fill: rgb(245, 245, 245); transform-origin: 433.325px 446.76px;" id="eles4t8sy57s4" class="animable"></path><path d="M410.68,436.48c0,.14,9.91.25,22.13.25s22.14-.11,22.14-.25-9.91-.25-22.14-.25S410.68,436.34,410.68,436.48Z" style="fill: rgb(245, 245, 245); transform-origin: 432.815px 436.48px;" id="el5k4timxzuqr" class="animable"></path><path d="M408.68,470c0,.14,10.77.25,24.06.25s24.06-.11,24.06-.25-10.77-.24-24.06-.24S408.68,469.86,408.68,470Z" style="fill: rgb(245, 245, 245); transform-origin: 432.74px 470.005px;" id="el8smubkbzwya" class="animable"></path><path d="M200.59,72a5.36,5.36,0,1,1-4.48-6.11A5.36,5.36,0,0,1,200.59,72Z" style="fill: rgb(224, 224, 224); transform-origin: 195.292px 71.1872px;" id="elk0a66blxwts" class="animable"></path><path d="M200.09,70.1c-.45.25-3.37-4.63-5.63-11.16s-3.85-11.8-3.41-12,2.93,4.89,5.16,11.37S200.54,69.86,200.09,70.1Z" style="fill: rgb(224, 224, 224); transform-origin: 195.564px 58.5217px;" id="eloxybd4yomk9" class="animable"></path><path d="M208.22,44.46c.31.31-2.81,3.52-8.08,4.76a12.52,12.52,0,0,1-6.81-.13c-1.72-.58-2.46-1.53-2.31-1.7s1.07.24,2.62.42a16.79,16.79,0,0,0,6.08-.4C204.46,46.32,207.89,44,208.22,44.46Z" style="fill: rgb(224, 224, 224); transform-origin: 199.621px 47.0148px;" id="elje0113kcic" class="animable"></path><path d="M217.76,69.5a5.36,5.36,0,1,1-4.48-6.11A5.35,5.35,0,0,1,217.76,69.5Z" style="fill: rgb(224, 224, 224); transform-origin: 212.463px 68.6872px;" id="el3hfi65knd7u" class="animable"></path><path d="M217.26,67.62c-.45.25-3.37-4.63-5.63-11.17s-3.85-11.79-3.41-12,2.93,4.88,5.16,11.36S217.72,67.38,217.26,67.62Z" style="fill: rgb(224, 224, 224); transform-origin: 212.735px 56.0365px;" id="elcg51ezqol0t" class="animable"></path><path d="M209.58,47.85c.38.31-2.4,3.57-7.3,4.91s-8.95,0-8.78-.42,3.9-.1,8.28-1.37S209.22,47.44,209.58,47.85Z" style="fill: rgb(224, 224, 224); transform-origin: 201.555px 50.571px;" id="elhgscyplh206" class="animable"></path><path d="M50.83,133.24a2.7,2.7,0,1,1,.72-3.75A2.69,2.69,0,0,1,50.83,133.24Z" style="fill: rgb(224, 224, 224); transform-origin: 49.3171px 131.005px;" id="el1ksh90cwcbc" class="animable"></path><path d="M51.36,132.41c-.25-.08.55-2.84,2.19-5.92s3-5.47,3.26-5.38-.8,2.76-2.43,5.81S51.6,132.49,51.36,132.41Z" style="fill: rgb(224, 224, 224); transform-origin: 54.0821px 126.76px;" id="elwy1ie6qoxil" class="animable"></path><path d="M63.62,126.6c0,.22-2.26.17-4.53-1.35a6.3,6.3,0,0,1-2.3-2.56c-.37-.83-.27-1.43-.16-1.43s.28.47.74,1.11a8.69,8.69,0,0,0,2.24,2.11C61.64,125.85,63.69,126.32,63.62,126.6Z" style="fill: rgb(224, 224, 224); transform-origin: 60.0755px 123.978px;" id="el7fvoxo0ct1b" class="animable"></path><path d="M57.65,138.73a2.7,2.7,0,1,1,.71-3.75A2.7,2.7,0,0,1,57.65,138.73Z" style="fill: rgb(224, 224, 224); transform-origin: 56.1283px 136.5px;" id="el9ujeyjfze75" class="animable"></path><path d="M58.17,137.9c-.25-.08.55-2.84,2.19-5.92s3-5.47,3.26-5.38-.79,2.76-2.43,5.81S58.42,138,58.17,137.9Z" style="fill: rgb(224, 224, 224); transform-origin: 60.8922px 132.25px;" id="elhnlshsquoes" class="animable"></path><path d="M62.83,128.27c0,.25-2.14.34-4.32-1s-3.08-3.3-2.86-3.39S57,125.28,59,126.46,62.86,128,62.83,128.27Z" style="fill: rgb(224, 224, 224); transform-origin: 59.2241px 126.148px;" id="elr26jorq7nx" class="animable"></path><path d="M123.38,80.62,98,77.52A3.2,3.2,0,0,1,95.26,74l4.3-35.07a3.2,3.2,0,0,1,3.56-2.79l16.07,2,10.87,14.35-3.12,25.42A3.18,3.18,0,0,1,123.38,80.62Z" style="fill: rgb(235, 235, 235); transform-origin: 112.65px 58.3818px;" id="elyvun9txzzc" class="animable"></path><path d="M119.19,38.07,118,47.94a3,3,0,0,0,2.59,3.31l9.49,1.17Z" style="fill: rgb(245, 245, 245); transform-origin: 124.031px 45.245px;" id="el491tqy1yf1p" class="animable"></path><path d="M118,48.83a3.3,3.3,0,0,0,2.21,3.5l.31.1c1.21.38,9.19,2.83,9.21,2.64s.33-2.65.33-2.65l-9.49-1.17S118.21,50.88,118,48.83Z" style="fill: rgb(224, 224, 224); transform-origin: 124.019px 51.9552px;" id="elglbc877av1f" class="animable"></path><path d="M115.9,47.28a37.12,37.12,0,0,1-5.89-.49,37.73,37.73,0,0,1-5.83-.95,40.11,40.11,0,0,1,5.89.49A37.45,37.45,0,0,1,115.9,47.28Z" style="fill: rgb(250, 250, 250); transform-origin: 110.04px 46.56px;" id="elj1myeflb6ne" class="animable"></path><path d="M122.79,53.79c0,.13-4.35-.3-9.67-.95s-9.64-1.29-9.62-1.42,4.34.3,9.67,1S122.81,53.66,122.79,53.79Z" style="fill: rgb(250, 250, 250); transform-origin: 113.145px 52.605px;" id="elnzlu86dc3n8" class="animable"></path><path d="M124,58.66c0,.13-4.74-.34-10.55-1.06s-10.5-1.39-10.48-1.51,4.73.34,10.54,1S124,58.54,124,58.66Z" style="fill: rgb(250, 250, 250); transform-origin: 113.485px 57.3763px;" id="elaidnkgp3h35" class="animable"></path><path d="M123.42,63.06c0,.13-4.74-.35-10.54-1.06s-10.51-1.39-10.49-1.52,4.73.35,10.54,1.06S123.44,62.93,123.42,63.06Z" style="fill: rgb(250, 250, 250); transform-origin: 112.905px 61.77px;" id="ela96r6mcq4z" class="animable"></path><path d="M122.88,67.46c0,.12-4.74-.35-10.54-1.06S101.83,65,101.85,64.88s4.73.35,10.54,1.06S122.9,67.33,122.88,67.46Z" style="fill: rgb(250, 250, 250); transform-origin: 112.365px 66.17px;" id="ele27q836yaxt" class="animable"></path><path d="M122.34,71.85c0,.13-4.73-.34-10.54-1s-10.51-1.4-10.49-1.52,4.74.34,10.54,1.06S122.36,71.73,122.34,71.85Z" style="fill: rgb(250, 250, 250); transform-origin: 111.825px 70.5913px;" id="ell6mqpif1t3h" class="animable"></path><g id="el185f4uai93"><circle cx="165.29" cy="151.29" r="4.18" style="fill: rgb(224, 224, 224); transform-origin: 165.29px 151.29px; transform: rotate(-16.1deg);" class="animable"></circle></g><path d="M168.86,149.9c-.2.15-2.92-3.3-5.44-8.06s-4.49-8.58-4.3-8.7,2.61,3.53,5.1,8.26S169.06,149.74,168.86,149.9Z" style="fill: rgb(224, 224, 224); transform-origin: 163.99px 141.521px;" id="elja8s0i9ck8b" class="animable"></path><path d="M166.81,128.51c.23.08-.65,2.26-3,3.77s-4.68,1.44-4.66,1.2,2.06-.59,4.16-2S166.58,128.38,166.81,128.51Z" style="fill: rgb(224, 224, 224); transform-origin: 162.998px 131.058px;" id="elqpzufc9cqte" class="animable"></path><path d="M168.64,132.45c.24.05-.55,2.26-2.95,3.56s-4.67.83-4.58.6,2-.22,4.14-1.4S168.4,132.31,168.64,132.45Z" style="fill: rgb(224, 224, 224); transform-origin: 164.894px 134.663px;" id="eljiiwg632hf" class="animable"></path></g><g id="freepik--Character--inject-87" class="animable" style="transform-origin: 250.391px 301.358px;"><polygon points="228.62 195.69 234.74 193.83 261.32 193.05 267.32 194.68 266.54 209.3 252.97 217.95 239.81 217.69 231.54 210.15 229.71 202.68 228.62 195.69" style="fill: rgb(255, 190, 157); transform-origin: 247.97px 205.5px;" id="elyaqztokuufe" class="animable"></polygon><path d="M305.39,218.7A89.24,89.24,0,0,0,300,209a24.09,24.09,0,0,0-13.88-10.1l-21.69-5.88s-1.12,21.67-16,21.67-17.82-20.31-17.82-20.31l-25.1,10c-.86.33-6.69,2.35-13.46,16.87-6.45,13.83-9.27,20.91-9.27,20.91l25.86,7.46,1.61,23.26L209.34,303h79l-1.05-31.93.74-23.54,1,1.58,26.11-10.47S311.74,231.78,305.39,218.7Z" style="fill: rgb(152, 174, 218); transform-origin: 248.96px 248.01px;" id="el7r5di1tlykr" class="animable"></path><path d="M209.63,292.93c-.56,2.28-2,7.35-2.89,9.48a3.7,3.7,0,0,0,0,2c.31.65,1.61.41,2.32.27,6.52-1.27,13.73-.22,20.1,1.68,6.62,2,13,5.66,19.87,5.54,4.65-.08,9.07-1.89,13.54-3.2a65.16,65.16,0,0,1,25.57-2.21,2.58,2.58,0,0,0,1.72-.21c.76-.52.7-1.63.55-2.54-.33-2.15-2.6-8.06-3.15-10.19" style="fill: rgb(152, 174, 218); transform-origin: 248.553px 302.416px;" id="el7v45fe83c7" class="animable"></path><path d="M205.22,218.23c.15,0,1,7.16,1.85,16s1.47,16.08,1.33,16.09-1-7.16-1.85-16S205.08,218.24,205.22,218.23Z" style="fill: rgb(38, 50, 56); transform-origin: 206.81px 234.275px;" id="el3t7z7ae16yq" class="animable"></path><path d="M289.34,221.43c.14,0-.08,6.69-.5,14.92s-.88,14.9-1,14.89.08-6.69.5-14.92S289.2,221.42,289.34,221.43Z" style="fill: rgb(38, 50, 56); transform-origin: 288.594px 236.335px;" id="ellmxeq0orot9" class="animable"></path><path d="M268.73,194.13a2.77,2.77,0,0,1-.1.69c-.09.5-.22,1.15-.38,2a63.91,63.91,0,0,1-1.88,7.13,27.26,27.26,0,0,1-5.29,9.55,18.24,18.24,0,0,1-5.08,4,14.37,14.37,0,0,1-6.77,1.66,18.92,18.92,0,0,1-12.31-4.91,25.53,25.53,0,0,1-6.26-8.93,37.47,37.47,0,0,1-2.23-7c-.18-.85-.3-1.51-.36-2a3.25,3.25,0,0,1-.08-.69,3.35,3.35,0,0,1,.18.67l.46,1.95a41.31,41.31,0,0,0,2.36,6.92,25.57,25.57,0,0,0,6.25,8.72,18.62,18.62,0,0,0,12,4.75,14,14,0,0,0,6.53-1.59,17.9,17.9,0,0,0,5-3.91,27.4,27.4,0,0,0,5.3-9.36c1-2.91,1.6-5.36,2-7l.48-1.94A5.28,5.28,0,0,1,268.73,194.13Z" style="fill: rgb(38, 50, 56); transform-origin: 248.36px 206.645px;" id="eldqy420xrjzp" class="animable"></path><path d="M237.48,209.71c.09.12-.44.63-1.17,1.15s-1.4.83-1.48.71.44-.63,1.18-1.14S237.4,209.6,237.48,209.71Z" style="fill: rgb(38, 50, 56); transform-origin: 236.156px 210.642px;" id="elhj65wkbzu5j" class="animable"></path><path d="M246.38,218.85a4.37,4.37,0,0,1,0-2.11,4.52,4.52,0,0,1,.51-2c.15,0,.15,1,0,2.11A4.47,4.47,0,0,1,246.38,218.85Z" style="fill: rgb(38, 50, 56); transform-origin: 246.627px 216.795px;" id="ellapsfsyd5on" class="animable"></path><path d="M259.54,215.13c-.1.1-.93-.52-1.85-1.4s-1.58-1.66-1.49-1.77.93.52,1.85,1.4S259.64,215,259.54,215.13Z" style="fill: rgb(38, 50, 56); transform-origin: 257.871px 213.544px;" id="el9r2o40edazw" class="animable"></path><path d="M265,206.35c-.08.12-.83-.23-1.74-.65s-1.68-.75-1.64-.9.9,0,1.85.43S265.08,206.23,265,206.35Z" style="fill: rgb(38, 50, 56); transform-origin: 263.313px 205.559px;" id="elgl6bn14b01" class="animable"></path><path d="M232,200.61c.05.13-.48.45-1.18.71s-1.31.37-1.36.23.48-.45,1.18-.71S232,200.48,232,200.61Z" style="fill: rgb(38, 50, 56); transform-origin: 230.73px 201.082px;" id="eluubndj5npnj" class="animable"></path><g id="eljco366hiy1"><g style="opacity: 0.3; transform-origin: 289.885px 237.28px;" class="animable"><polygon points="289.14 225.41 291.76 248.04 288.99 249.15 288.01 247.57 289.14 225.41" id="el524mplihpyp" class="animable" style="transform-origin: 289.885px 237.28px;"></polygon></g></g><path d="M200,219.14a5.91,5.91,0,0,1-2.64-1.18c-1.35-.88-2.24-1.85-2.14-2a65.38,65.38,0,0,1,4.78,3.13Z" style="fill: rgb(255, 255, 255); transform-origin: 197.606px 217.55px;" id="elqh38z5f25r" class="animable"></path><path d="M221.15,222.4a18.57,18.57,0,0,1-4.34-.16,18.14,18.14,0,0,1-4.3-.67,18.66,18.66,0,0,1,4.35.16A17.41,17.41,0,0,1,221.15,222.4Z" style="fill: rgb(255, 255, 255); transform-origin: 216.83px 221.985px;" id="el4t03mq2bjhr" class="animable"></path><path d="M244.06,226.61a23.42,23.42,0,0,1-4.32-.38,25.19,25.19,0,0,1-4.29-.63,14.65,14.65,0,0,1,4.35.11A14.92,14.92,0,0,1,244.06,226.61Z" style="fill: rgb(255, 255, 255); transform-origin: 239.755px 226.049px;" id="eldl9dd4pptqn" class="animable"></path><path d="M273.16,223.64a25.2,25.2,0,0,1-5,1.09,25.5,25.5,0,0,1-5.07.58,50.49,50.49,0,0,1,10.06-1.67Z" style="fill: rgb(255, 255, 255); transform-origin: 268.125px 224.475px;" id="elrf3v6li60f" class="animable"></path><path d="M291,216.87a5.41,5.41,0,0,1-2.4,1.76,5.31,5.31,0,0,1-2.89.71,21.82,21.82,0,0,1,2.67-1.18A21.26,21.26,0,0,1,291,216.87Z" style="fill: rgb(255, 255, 255); transform-origin: 288.355px 218.107px;" id="eljhaixigdd" class="animable"></path><path d="M301.35,214.23a9.28,9.28,0,0,1-3.19,1.65,9,9,0,0,1-3.51.81A20.67,20.67,0,0,1,298,215.4,18,18,0,0,1,301.35,214.23Z" style="fill: rgb(255, 255, 255); transform-origin: 298px 215.46px;" id="eltnx64qsfnd" class="animable"></path><path d="M280.21,212.84a41.79,41.79,0,0,1-9,2.12,20.25,20.25,0,0,1,4.43-1.31A20.45,20.45,0,0,1,280.21,212.84Z" style="fill: rgb(255, 255, 255); transform-origin: 275.71px 213.9px;" id="elzo9ylcw9jqf" class="animable"></path><path d="M294.69,206.38a17,17,0,0,1-3.62,2.09,17.24,17.24,0,0,1-3.86,1.62,33.72,33.72,0,0,1,7.48-3.71Z" style="fill: rgb(255, 255, 255); transform-origin: 290.95px 208.235px;" id="elrj1qfetvm" class="animable"></path><path d="M279,204.52a19.3,19.3,0,0,1-6.17,1.39,9.68,9.68,0,0,1,3-.95A9.93,9.93,0,0,1,279,204.52Z" style="fill: rgb(255, 255, 255); transform-origin: 275.915px 205.214px;" id="elxfste7hcg6" class="animable"></path><path d="M288.65,201.52c.06.14-.57.52-1.4.86s-1.54.5-1.6.37.58-.52,1.41-.85S288.6,201.39,288.65,201.52Z" style="fill: rgb(255, 255, 255); transform-origin: 287.15px 202.136px;" id="el48nad68rjh7" class="animable"></path><path d="M250.94,222a12.7,12.7,0,0,1-4.46.12,12.53,12.53,0,0,1-4.35-1,38.69,38.69,0,0,1,4.4.44A39.2,39.2,0,0,1,250.94,222Z" style="fill: rgb(255, 255, 255); transform-origin: 246.535px 221.691px;" id="el3jm8bq1v9s8" class="animable"></path><path d="M265.57,217.93c0,.14-.8.49-1.87.78s-2,.41-2,.27.8-.48,1.87-.78S265.53,217.79,265.57,217.93Z" style="fill: rgb(255, 255, 255); transform-origin: 263.635px 218.454px;" id="elpr8x4e840b" class="animable"></path><path d="M231.21,217.72a12.12,12.12,0,0,1-3.55-.09,12,12,0,0,1-3.5-.62,12.32,12.32,0,0,1,3.55.1A12.69,12.69,0,0,1,231.21,217.72Z" style="fill: rgb(255, 255, 255); transform-origin: 227.685px 217.368px;" id="elfxhz2orsy8p" class="animable"></path><path d="M215.51,213.94a14.61,14.61,0,0,1-3.85-.52,14.33,14.33,0,0,1-3.74-1,14.61,14.61,0,0,1,3.85.52A14.8,14.8,0,0,1,215.51,213.94Z" style="fill: rgb(255, 255, 255); transform-origin: 211.715px 213.18px;" id="eloqstzoysua" class="animable"></path><path d="M216.58,205.21a8.46,8.46,0,0,1-2.93,0,8.29,8.29,0,0,1-2.89-.53,8.53,8.53,0,0,1,2.94,0A8.27,8.27,0,0,1,216.58,205.21Z" style="fill: rgb(255, 255, 255); transform-origin: 213.67px 204.945px;" id="elngxuyu2a4o8" class="animable"></path><path d="M227.15,208.93a4.32,4.32,0,0,1-2.66.17,4.18,4.18,0,0,1-2.46-1,22.13,22.13,0,0,1,2.55.5A17.94,17.94,0,0,1,227.15,208.93Z" style="fill: rgb(255, 255, 255); transform-origin: 224.59px 208.667px;" id="el7f4a3q8thtc" class="animable"></path><path d="M225.92,201.54a6.56,6.56,0,0,1-2.54-.46,6.64,6.64,0,0,1-2.4-1,6.44,6.44,0,0,1,2.54.45A6.55,6.55,0,0,1,225.92,201.54Z" style="fill: rgb(255, 255, 255); transform-origin: 223.45px 200.809px;" id="eli0l12g9zedh" class="animable"></path><path d="M275.62,198c0,.14-.6.45-1.42.7s-1.53.33-1.57.19.59-.45,1.42-.69S275.58,197.89,275.62,198Z" style="fill: rgb(255, 255, 255); transform-origin: 274.124px 198.454px;" id="elni36d7f1eo" class="animable"></path><path d="M200.57,228.78a19.64,19.64,0,0,1-5.72-2.66,19,19,0,0,1,5.72,2.66Z" style="fill: rgb(255, 255, 255); transform-origin: 197.71px 227.45px;" id="el4yl7up30suo" class="animable"></path><path d="M192,237.54a9.1,9.1,0,0,1-3-.29,9.2,9.2,0,0,1-2.92-.81,17.36,17.36,0,0,1,5.94,1.1Z" style="fill: rgb(255, 255, 255); transform-origin: 189.05px 237.001px;" id="elkw2j4vxppyq" class="animable"></path><path d="M203.88,241.72a26,26,0,0,1-3.63-1.09,27.16,27.16,0,0,1-3.63-1.11,14.29,14.29,0,0,1,7.26,2.2Z" style="fill: rgb(255, 255, 255); transform-origin: 200.25px 240.62px;" id="elembzio0j2rd" class="animable"></path><path d="M216,232a19.7,19.7,0,0,1-6.38,0,19.7,19.7,0,0,1,6.38,0Z" style="fill: rgb(255, 255, 255); transform-origin: 212.81px 232px;" id="ellkrkwjkg6i" class="animable"></path><path d="M221,245.24a39.64,39.64,0,0,1-4.06-1,41.26,41.26,0,0,1-4.08-1,16,16,0,0,1,8.14,2Z" style="fill: rgb(255, 255, 255); transform-origin: 216.93px 244.238px;" id="elj6wreyr1qz" class="animable"></path><path d="M244.47,239.53a7.26,7.26,0,0,1-2.07,0,46.28,46.28,0,0,1-5-.61,47.35,47.35,0,0,1-4.87-1.12,7.29,7.29,0,0,1-1.95-.72c0-.15,3.09.66,6.91,1.33S244.48,239.38,244.47,239.53Z" style="fill: rgb(255, 255, 255); transform-origin: 237.525px 238.333px;" id="eln0mcyie933d" class="animable"></path><path d="M244.59,248.07a20,20,0,0,1-4.53,0,18.79,18.79,0,0,1-4.49-.51,20.61,20.61,0,0,1,4.52,0A20.36,20.36,0,0,1,244.59,248.07Z" style="fill: rgb(255, 255, 255); transform-origin: 240.08px 247.817px;" id="elu7apbx30wj" class="animable"></path><path d="M259.33,233.39a37.36,37.36,0,0,1-8.8.22,37.36,37.36,0,0,1,8.8-.22Z" style="fill: rgb(255, 255, 255); transform-origin: 254.93px 233.5px;" id="els0luukayom" class="animable"></path><path d="M271.87,244.39a38.19,38.19,0,0,1-6.35.94,40.91,40.91,0,0,1-6.41.42,40.87,40.87,0,0,1,6.35-.94A40.86,40.86,0,0,1,271.87,244.39Z" style="fill: rgb(255, 255, 255); transform-origin: 265.49px 245.07px;" id="el7dgtgxgdea2" class="animable"></path><path d="M282,232.07a36.47,36.47,0,0,1-5.88,1.68,35.57,35.57,0,0,1-6,1.19,35.84,35.84,0,0,1,5.88-1.69A36.3,36.3,0,0,1,282,232.07Z" style="fill: rgb(255, 255, 255); transform-origin: 276.06px 233.505px;" id="el0koyuapuzb6" class="animable"></path><path d="M283.07,240.16a4.47,4.47,0,0,1-2.24,1.3,4.55,4.55,0,0,1-2.58.33,12.93,12.93,0,0,1,2.41-.82A12.26,12.26,0,0,1,283.07,240.16Z" style="fill: rgb(255, 255, 255); transform-origin: 280.66px 241.005px;" id="elflpxyg5dfpq" class="animable"></path><path d="M297.82,223.89a10.55,10.55,0,0,1-3.11,1.16,10.38,10.38,0,0,1-3.25.66,10.89,10.89,0,0,1,3.11-1.16A11.16,11.16,0,0,1,297.82,223.89Z" style="fill: rgb(255, 255, 255); transform-origin: 294.64px 224.8px;" id="elxd8ne5c57h" class="animable"></path><path d="M305.32,233.19a57.75,57.75,0,0,1-10.54,2.72,28.34,28.34,0,0,1,5.2-1.61A27.8,27.8,0,0,1,305.32,233.19Z" style="fill: rgb(255, 255, 255); transform-origin: 300.05px 234.55px;" id="ele91u4dnkfpk" class="animable"></path><path d="M307.94,225.44a15.79,15.79,0,0,1-3.64,1.78,16,16,0,0,1-3.84,1.3,32.06,32.06,0,0,1,7.48-3.08Z" style="fill: rgb(255, 255, 255); transform-origin: 304.2px 226.98px;" id="elo52eyuh8hjs" class="animable"></path><path d="M300.24,241.28a21.7,21.7,0,0,1-5.94,3.08,21.7,21.7,0,0,1,5.94-3.08Z" style="fill: rgb(255, 255, 255); transform-origin: 297.27px 242.82px;" id="elm489jbozkc" class="animable"></path><path d="M224.34,261.8a17.42,17.42,0,0,1-4.2-.07,17.16,17.16,0,0,1-4.16-.59,17.42,17.42,0,0,1,4.2.07A17.16,17.16,0,0,1,224.34,261.8Z" style="fill: rgb(255, 255, 255); transform-origin: 220.16px 261.47px;" id="el6eqkwc5w68j" class="animable"></path><path d="M231.37,256.29a41.14,41.14,0,0,1-9-2,20.3,20.3,0,0,1,4.57.73A20.37,20.37,0,0,1,231.37,256.29Z" style="fill: rgb(255, 255, 255); transform-origin: 226.87px 255.29px;" id="elesvvpcc9m0r" class="animable"></path><path d="M256.9,256.24a27,27,0,0,1-7.48,0,27,27,0,0,1,7.48,0Z" style="fill: rgb(255, 255, 255); transform-origin: 253.16px 256.24px;" id="el9ptt5kvkoif" class="animable"></path><path d="M252.72,265.21a6.53,6.53,0,0,1-2,.24,33,33,0,0,1-4.76-.17,31.45,31.45,0,0,1-4.69-.86,6.57,6.57,0,0,1-1.86-.65c0-.15,2.94.61,6.61,1S252.71,265.05,252.72,265.21Z" style="fill: rgb(255, 255, 255); transform-origin: 246.065px 264.611px;" id="el4l0xfkzilod" class="animable"></path><path d="M280.66,258.87a21.73,21.73,0,0,1-5.82.66,22.05,22.05,0,0,1-5.84-.4c0-.15,2.62-.05,5.83-.12S280.64,258.72,280.66,258.87Z" style="fill: rgb(255, 255, 255); transform-origin: 274.83px 259.197px;" id="elrs7fgnoo9nb" class="animable"></path><path d="M280.22,250.74a30.58,30.58,0,0,1-7.92,1.32,30.77,30.77,0,0,1,7.92-1.32Z" style="fill: rgb(255, 255, 255); transform-origin: 276.26px 251.4px;" id="el19k0utlrs9o" class="animable"></path><path d="M221.26,298.92a44.12,44.12,0,0,1-4.51-.15,44.11,44.11,0,0,1-4.51-.07,13.08,13.08,0,0,1,4.53-.45A12.88,12.88,0,0,1,221.26,298.92Z" style="fill: rgb(255, 255, 255); transform-origin: 216.75px 298.57px;" id="elx3s9p23lo3k" class="animable"></path><path d="M237.54,303.76a28.59,28.59,0,0,1-5.52-.28,30.15,30.15,0,0,1-5.48-.8,28.69,28.69,0,0,1,5.53.28A29.75,29.75,0,0,1,237.54,303.76Z" style="fill: rgb(255, 255, 255); transform-origin: 232.04px 303.22px;" id="elu85rfp9vaa" class="animable"></path><path d="M253.38,307.5a19,19,0,0,1-5.45,1,19.24,19.24,0,0,1-5.55-.1c0-.15,2.48-.17,5.51-.41S253.35,307.35,253.38,307.5Z" style="fill: rgb(255, 255, 255); transform-origin: 247.88px 308.061px;" id="elqaivv8hwhon" class="animable"></path><path d="M251.85,300.09a19.8,19.8,0,0,1-4.39.48,19.14,19.14,0,0,1-4.41,0,18.25,18.25,0,0,1,4.38-.48A18,18,0,0,1,251.85,300.09Z" style="fill: rgb(255, 255, 255); transform-origin: 247.45px 300.326px;" id="elm685s242o5c" class="animable"></path><path d="M238.64,295.66a35.61,35.61,0,0,1-6,.37,36.12,36.12,0,0,1-6.06-.15,35.91,35.91,0,0,1,6.05-.37A35.88,35.88,0,0,1,238.64,295.66Z" style="fill: rgb(255, 255, 255); transform-origin: 232.61px 295.771px;" id="ellxw95r02cqm" class="animable"></path><path d="M269.44,295.37a33.07,33.07,0,0,1-5.81.7,32.62,32.62,0,0,1-5.85.18,34.25,34.25,0,0,1,5.81-.7A33.78,33.78,0,0,1,269.44,295.37Z" style="fill: rgb(255, 255, 255); transform-origin: 263.61px 295.812px;" id="ellj1dex8p8w" class="animable"></path><path d="M270.54,301.36c0,.16-2.59.36-5.69,1.12s-5.51,1.76-5.57,1.62a16.32,16.32,0,0,1,5.45-2.13A16.81,16.81,0,0,1,270.54,301.36Z" style="fill: rgb(255, 255, 255); transform-origin: 264.91px 302.716px;" id="elrzgnzlkc9g" class="animable"></path><path d="M285.72,298a7.15,7.15,0,0,1-2.62.55,6.84,6.84,0,0,1-2.67,0,13.68,13.68,0,0,1,5.29-.58Z" style="fill: rgb(255, 255, 255); transform-origin: 283.075px 298.3px;" id="el3m7zszm511j" class="animable"></path><path d="M267.57,198.37c-.06.13-.87-.16-1.87-.5s-1.82-.58-1.8-.73a3.17,3.17,0,0,1,2,.24C266.91,197.73,267.64,198.25,267.57,198.37Z" style="fill: rgb(38, 50, 56); transform-origin: 265.737px 197.738px;" id="el17ww5no8bas" class="animable"></path><path d="M226.1,274.62a28.69,28.69,0,0,1-5.47-.31,29.18,29.18,0,0,1-5.41-.82,27.66,27.66,0,0,1,5.46.31A29.39,29.39,0,0,1,226.1,274.62Z" style="fill: rgb(255, 255, 255); transform-origin: 220.66px 274.054px;" id="el762so14uz7" class="animable"></path><path d="M242.8,272.31a16,16,0,0,1-4.15,0,17.2,17.2,0,0,1-4.11-.52,16,16,0,0,1,4.15,0A17.2,17.2,0,0,1,242.8,272.31Z" style="fill: rgb(255, 255, 255); transform-origin: 238.67px 272.05px;" id="elynzp6nko8i9" class="animable"></path><path d="M269.25,270.45c0,.15-2.37.13-5.26.39s-5.22.67-5.25.52a16.91,16.91,0,0,1,5.2-1A16.65,16.65,0,0,1,269.25,270.45Z" style="fill: rgb(255, 255, 255); transform-origin: 263.995px 270.791px;" id="elxrfta6st8ng" class="animable"></path><path d="M281.25,279.84a51.48,51.48,0,0,1-7.32.16,52.21,52.21,0,0,1-7.31-.37,49.76,49.76,0,0,1,7.32-.16A52.21,52.21,0,0,1,281.25,279.84Z" style="fill: rgb(255, 255, 255); transform-origin: 273.935px 279.733px;" id="elur1wdrr8kke" class="animable"></path><path d="M282.19,267.81a8.39,8.39,0,0,1-5.44.94,12.51,12.51,0,0,1,2.71-.52A12.84,12.84,0,0,1,282.19,267.81Z" style="fill: rgb(255, 255, 255); transform-origin: 279.47px 268.336px;" id="el4e24a432z03" class="animable"></path><path d="M253.1,279.57a9.61,9.61,0,0,1-4.26.62,9.77,9.77,0,0,1-4.24-.8c0-.15,1.91.24,4.25.28S253.07,279.42,253.1,279.57Z" style="fill: rgb(255, 255, 255); transform-origin: 248.85px 279.789px;" id="el7e6zowq19u" class="animable"></path><path d="M237.73,281.32a32.85,32.85,0,0,1-8.25,0,32.85,32.85,0,0,1,8.25,0Z" style="fill: rgb(255, 255, 255); transform-origin: 233.605px 281.32px;" id="elaj2frq0gftf" class="animable"></path><path d="M226.66,287.14a21.25,21.25,0,0,1-6.56-.19,10.35,10.35,0,0,1,3.29-.17A10.13,10.13,0,0,1,226.66,287.14Z" style="fill: rgb(255, 255, 255); transform-origin: 223.38px 287.014px;" id="elrftnh79bfak" class="animable"></path><path d="M250.3,289.23a26.15,26.15,0,0,1-5.26.08,27.34,27.34,0,0,1-5.25-.44,27.14,27.14,0,0,1,5.27-.08A27.17,27.17,0,0,1,250.3,289.23Z" style="fill: rgb(255, 255, 255); transform-origin: 245.045px 289.052px;" id="eleokvm756his" class="animable"></path><path d="M270.93,286.21a39,39,0,0,1-4.59-.11,40.09,40.09,0,0,1-4.6-.14,13.82,13.82,0,0,1,4.61-.38A14.08,14.08,0,0,1,270.93,286.21Z" style="fill: rgb(255, 255, 255); transform-origin: 266.335px 285.881px;" id="elxy9ziagdizn" class="animable"></path><path d="M285.75,290.51a39.52,39.52,0,0,1-4.68.3,38.82,38.82,0,0,1-4.7.26,22.29,22.29,0,0,1,9.38-.56Z" style="fill: rgb(255, 255, 255); transform-origin: 281.06px 290.661px;" id="el0mizg9lql5jh" class="animable"></path><path d="M215,281.7c0,.14-.75.38-1.74.53s-1.8.17-1.82,0,.76-.38,1.74-.54S215,281.55,215,281.7Z" style="fill: rgb(255, 255, 255); transform-origin: 213.22px 281.964px;" id="eliojsko2cvqc" class="animable"></path><path d="M216.72,251.49c0,.15-.94.35-2.13.45a4.69,4.69,0,0,1-2.18-.07,9.09,9.09,0,0,1,4.31-.38Z" style="fill: rgb(255, 255, 255); transform-origin: 214.565px 251.71px;" id="ellrl10a1wurl" class="animable"></path><path d="M230.61,229.51a4.79,4.79,0,0,1-2.19,0c-1.19-.16-2.14-.4-2.12-.55a4.79,4.79,0,0,1,2.19,0C229.68,229.12,230.63,229.36,230.61,229.51Z" style="fill: rgb(255, 255, 255); transform-origin: 228.455px 229.235px;" id="elpq4a2dwrzei" class="animable"></path><path d="M282.76,227.33a24,24,0,0,1-4.84,1.09A23.62,23.62,0,0,1,273,229a24.34,24.34,0,0,1,4.84-1.1A23.18,23.18,0,0,1,282.76,227.33Z" style="fill: rgb(255, 255, 255); transform-origin: 277.88px 228.165px;" id="el91a1r5qul4j" class="animable"></path><g id="el8uvgnw2u5ju"><g style="opacity: 0.3; transform-origin: 248.59px 297.583px;" class="animable"><path d="M209.09,293.39c1.46,2.43,4.51,3.43,7.35,3.59s5.69-.33,8.51,0c4.42.54,8.36,3.06,12.69,4.15,9.85,2.46,20-2.79,30.12-2.83,3.45,0,6.88.58,10.33.72s7.05-.21,10-1.94l-.25-3.7Z" id="elq9rcspl74nh" class="animable" style="transform-origin: 248.59px 297.583px;"></path></g></g><rect x="221.04" y="345.57" width="58.52" height="14.07" style="fill: rgb(69, 90, 100); transform-origin: 250.3px 352.605px;" id="eljo0hxpl0syq" class="animable"></rect><polygon points="225.61 359.64 195.82 475.2 202.24 475.2 234.91 359.64 225.61 359.64" style="fill: rgb(69, 90, 100); transform-origin: 215.365px 417.42px;" id="el3u0aka961kf" class="animable"></polygon><polygon points="273.42 359.64 303.43 475.2 297.01 475.2 264.12 359.64 273.42 359.64" style="fill: rgb(69, 90, 100); transform-origin: 283.775px 417.42px;" id="eljbb9ku4cpm" class="animable"></polygon><path d="M264.22,360c.09.11-8.55,7.87-19.31,17.33s-19.56,17.05-19.65,16.94,8.55-7.86,19.31-17.33S264.12,359.9,264.22,360Z" style="fill: rgb(38, 50, 56); transform-origin: 244.74px 377.135px;" id="elu73pi3uqb6j" class="animable"></path><path d="M278.77,394.65c-.09.12-10.22-7.67-22.63-17.38s-22.39-17.67-22.3-17.79,10.21,7.67,22.62,17.38S278.85,394.54,278.77,394.65Z" style="fill: rgb(38, 50, 56); transform-origin: 256.305px 377.065px;" id="elztwh0fz8vk" class="animable"></path><path d="M279.28,359.65c0,.14-12.78.26-28.54.26s-28.54-.12-28.54-.26,12.78-.27,28.54-.27S279.28,359.5,279.28,359.65Z" style="fill: rgb(38, 50, 56); transform-origin: 250.74px 359.645px;" id="elw26hnnmqmjg" class="animable"></path><path d="M254.36,434l-12,19.19,36.54,23c2-3.62-12.5-22.54-12.5-22.54l5.8-8.52Z" style="fill: rgb(152, 174, 218); transform-origin: 260.725px 455.095px;" id="ela1yir7ze0ss" class="animable"></path><g id="el61eoavntxlg"><g style="opacity: 0.3; transform-origin: 260.7px 455.095px;" class="animable"><path d="M254.28,434l-11.95,19.19,36.55,23c2-3.62-12.51-22.54-12.51-22.54l5.8-8.52Z" id="elnkjaabgh6e9" class="animable" style="transform-origin: 260.7px 455.095px;"></path></g></g><path d="M256.07,445A1.76,1.76,0,0,0,254,446a1.7,1.7,0,0,0,1,2.1,1.87,1.87,0,0,0,2.22-1.13A1.75,1.75,0,0,0,255.9,445" style="fill: rgb(255, 255, 255); transform-origin: 255.58px 446.551px;" id="elj03ndmgu7p" class="animable"></path><path d="M242.4,453.09l1.84-3,34.3,23.48s1.17,1.74.26,2.76Z" style="fill: rgb(255, 255, 255); transform-origin: 260.773px 463.21px;" id="elhcx1bxty2nb" class="animable"></path><path d="M267.08,453.88c-.12.17-1.06-.31-2.3-.29s-2.18.48-2.3.3.8-1,2.3-1S267.22,453.74,267.08,453.88Z" style="fill: rgb(38, 50, 56); transform-origin: 264.782px 453.411px;" id="eltfxys8zx6x8" class="animable"></path><path d="M269.92,457.88c-.07.19-1,0-2.12.38s-1.76,1.07-1.93.95.35-1.21,1.7-1.64S270,457.7,269.92,457.88Z" style="fill: rgb(38, 50, 56); transform-origin: 267.882px 458.318px;" id="elnve77ctl5fj" class="animable"></path><path d="M269.2,463.83c-.18-.06.13-1.11,1.2-1.8s2.16-.55,2.14-.35-.86.39-1.74,1S269.39,463.93,269.2,463.83Z" style="fill: rgb(38, 50, 56); transform-origin: 270.846px 462.678px;" id="elmg2w6a5ul5" class="animable"></path><path d="M269.47,449.37c-.18.11-.84-.65-1.89-1.22s-2-.74-2-.95,1.16-.38,2.39.31S269.65,449.28,269.47,449.37Z" style="fill: rgb(38, 50, 56); transform-origin: 267.544px 448.198px;" id="elmpm691e4pum" class="animable"></path><path d="M257.14,434.24l11.91,18.54-36.22,23.53c-2-3.6,12.19-22.72,12.19-22.72l-5.6-8Z" style="fill: rgb(152, 174, 218); transform-origin: 250.843px 455.275px;" id="elwg81e7e48uc" class="animable"></path><g id="elde72uy4jj3t"><g style="opacity: 0.6; transform-origin: 255.722px 446.304px;" class="animable"><path d="M255.2,444.75a1.75,1.75,0,0,1,2.12,1,1.7,1.7,0,0,1-1,2.11,1.86,1.86,0,0,1-2.24-1.1,1.77,1.77,0,0,1,1.28-2.08" style="fill: rgb(255, 255, 255); transform-origin: 255.722px 446.304px;" id="eleteg1tt8e" class="animable"></path></g></g><g id="elem3ovrzox07"><g style="opacity: 0.6; transform-origin: 250.771px 463.045px;" class="animable"><path d="M269,452.66l-1.88-3-34,24s-1.14,1.76-.22,2.77Z" style="fill: rgb(255, 255, 255); transform-origin: 250.771px 463.045px;" id="el5ngx8xk6hn" class="animable"></path></g></g><path d="M244.31,453.79c.12.17,1.06-.32,2.3-.32s2.18.45,2.3.27-.81-1-2.31-1S244.17,453.65,244.31,453.79Z" style="fill: rgb(38, 50, 56); transform-origin: 246.608px 453.283px;" id="el1lkm0bldtvd" class="animable"></path><path d="M241.53,457.83c.07.2,1,0,2.12.36s1.78,1,1.95.91-.37-1.19-1.73-1.61S241.43,457.66,241.53,457.83Z" style="fill: rgb(38, 50, 56); transform-origin: 243.577px 458.225px;" id="elall8gmsjzm7" class="animable"></path><path d="M242.33,463.78c.19-.07-.14-1.11-1.23-1.79s-2.16-.52-2.14-.32.87.38,1.75.95S242.14,463.87,242.33,463.78Z" style="fill: rgb(38, 50, 56); transform-origin: 240.67px 462.643px;" id="eluov4qdc7mur" class="animable"></path><path d="M241.86,449.31c.18.12.83-.66,1.87-1.24s2-.77,2-1-1.16-.36-2.38.35S241.68,449.23,241.86,449.31Z" style="fill: rgb(38, 50, 56); transform-origin: 243.776px 448.105px;" id="elvusgsc1vrda" class="animable"></path><path d="M208.76,302.72S177,334.09,183.64,356.54c5.29,17.74,51.27,92.14,51.27,92.14l27.61-18.06L226.59,363.7a54.22,54.22,0,0,0-2-9.66l2-2.67s11.91-5.64,21.91-5l.89-43.34Z" style="fill: rgb(38, 50, 56); transform-origin: 222.624px 375.7px;" id="elpborclcmanf" class="animable"></path><path d="M248.5,346.39S267.1,351,271,351c2.46,0,1.11,7.36,2.44,10.36l0,.65-26.1,69.15,26.93,15.89s20.35-51.23,24.69-59.89,11.31-28.81,14-34.8-1-16.35-5.66-25.35-19.33-24-19.33-24H249.39Z" style="fill: rgb(38, 50, 56); transform-origin: 280.605px 375.03px;" id="elr8n0y34iui" class="animable"></path><path d="M302.33,334.77a34.34,34.34,0,0,0-5-1.23,20.62,20.62,0,0,0-20.86,9.92,35,35,0,0,0-2.17,4.61,5.52,5.52,0,0,1,.33-1.34,17.87,17.87,0,0,1,1.53-3.46,20.25,20.25,0,0,1,21.23-10.09,18.11,18.11,0,0,1,3.64,1A6.18,6.18,0,0,1,302.33,334.77Z" style="fill: rgb(69, 90, 100); transform-origin: 288.315px 340.469px;" id="eldn95wachvvq" class="animable"></path><path d="M286.88,351a18.69,18.69,0,0,1-2.27,1.34,44.63,44.63,0,0,0-5.23,3.53,43.7,43.7,0,0,0-4.66,4.25,20.9,20.9,0,0,1-1.83,1.89,10,10,0,0,1,1.56-2.14,32.66,32.66,0,0,1,4.61-4.41,32,32,0,0,1,5.37-3.44A10.56,10.56,0,0,1,286.88,351Z" style="fill: rgb(69, 90, 100); transform-origin: 279.885px 356.505px;" id="elzh9hhggosri" class="animable"></path><path d="M226.66,351.34c-.09.06-1-1.37-2.81-3.3a25.88,25.88,0,0,0-3.54-3.08,26.63,26.63,0,0,0-10.43-4.57,28,28,0,0,0-4.66-.56c-2.67-.09-4.33.16-4.34.06a4.38,4.38,0,0,1,1.15-.23,11.21,11.21,0,0,1,1.37-.14c.54,0,1.15-.09,1.83-.06a26,26,0,0,1,4.74.45,28.16,28.16,0,0,1,5.58,1.73,27.35,27.35,0,0,1,5,2.93,24.71,24.71,0,0,1,3.52,3.21c.47.49.82,1,1.16,1.42a10.19,10.19,0,0,1,.8,1.12A5.26,5.26,0,0,1,226.66,351.34Z" style="fill: rgb(69, 90, 100); transform-origin: 213.77px 345.398px;" id="el6s3fjbe274i" class="animable"></path><path d="M226.66,351.34a22.19,22.19,0,0,1-.55-2.33,28.69,28.69,0,0,0-2-5.37,55.92,55.92,0,0,0-4.29-6.9,8.59,8.59,0,0,1,1.66,1.74,26,26,0,0,1,3.1,4.93,22.3,22.3,0,0,1,1.85,5.53A7.18,7.18,0,0,1,226.66,351.34Z" style="fill: rgb(69, 90, 100); transform-origin: 223.25px 344.04px;" id="el4c0of6lfoos" class="animable"></path><path d="M234.91,448.68s0,0,.12-.1l.36-.26,1.45-1,5.53-3.69,19.79-13.05-.07.29-15.24-28.83c-7.94-15.12-15.16-28.89-20.54-39.12v-.05q-1-4.89-1.85-8.71v0a14.08,14.08,0,0,0-5.4-6.95,16.49,16.49,0,0,0-2.09-1.16l-.56-.24c-.12-.06-.19-.09-.18-.1a11.1,11.1,0,0,1,2.91,1.37,14,14,0,0,1,5.6,7h0l1.92,8.69,0-.05,20.66,39.05,15.18,28.87.09.18-.17.11-19.9,12.9-5.6,3.59-1.48.93-.38.23Z" style="fill: rgb(69, 90, 100); transform-origin: 239.41px 397.195px;" id="eloifjkqm3hn" class="animable"></path><path d="M247.93,335.27c0,.1-1.44,0-3.75.13a44.12,44.12,0,0,0-8.9,1.47,37.22,37.22,0,0,0-8.37,3.33c-2,1.13-3.11,2.07-3.17,2a4.11,4.11,0,0,1,.73-.7,8.6,8.6,0,0,1,.94-.74,13.77,13.77,0,0,1,1.32-.87,32,32,0,0,1,8.41-3.51,38,38,0,0,1,9-1.34,21.51,21.51,0,0,1,2.77.09A3.83,3.83,0,0,1,247.93,335.27Z" style="fill: rgb(69, 90, 100); transform-origin: 235.835px 338.616px;" id="el85ud8743o56" class="animable"></path><path d="M247.56,329.72a3.63,3.63,0,0,1-.52-.94l-1.25-2.63a40.54,40.54,0,0,0-4.91-8.16,18.4,18.4,0,0,0-7.53-5.6,21.79,21.79,0,0,0-3.83-.93,3.61,3.61,0,0,1,1.08,0,11.79,11.79,0,0,1,2.88.6,17.72,17.72,0,0,1,7.8,5.62,35.23,35.23,0,0,1,4.85,8.34c.49,1.13.86,2.06,1.1,2.7A4.92,4.92,0,0,1,247.56,329.72Z" style="fill: rgb(69, 90, 100); transform-origin: 238.54px 320.57px;" id="elymgm2cae66p" class="animable"></path><path d="M271,314.24c0,.11-1.46.18-3.73.79a24.3,24.3,0,0,0-3.85,1.43,23.86,23.86,0,0,0-7.92,6.08,23.62,23.62,0,0,0-2.37,3.34c-1.18,2-1.63,3.43-1.73,3.4a4.22,4.22,0,0,1,.28-1,7.6,7.6,0,0,1,.43-1.13c.2-.43.4-.93.7-1.45a21.47,21.47,0,0,1,2.33-3.47,22.2,22.2,0,0,1,8.08-6.2,20.88,20.88,0,0,1,4-1.35,14.81,14.81,0,0,1,1.58-.3,7.37,7.37,0,0,1,1.2-.13A4.4,4.4,0,0,1,271,314.24Z" style="fill: rgb(69, 90, 100); transform-origin: 261.2px 321.748px;" id="elzg4e6j7e8bd" class="animable"></path><path d="M275.41,343.86c-.08.07-1.06-1-3-2.29a36.22,36.22,0,0,0-8.29-3.83,43,43,0,0,0-8.93-2l-1.57-.11H252.4a4.27,4.27,0,0,1-1,0,3.59,3.59,0,0,1,1-.24c.33,0,.74-.06,1.21-.09l1.6,0a37.78,37.78,0,0,1,9.07,1.88,32.35,32.35,0,0,1,8.33,4,12.27,12.27,0,0,1,1.27,1,7.3,7.3,0,0,1,.88.82A4.43,4.43,0,0,1,275.41,343.86Z" style="fill: rgb(69, 90, 100); transform-origin: 263.405px 339.582px;" id="elafkqn1v5kpq" class="animable"></path><path d="M276.18,352.07c0,.05-.36-.14-.72-.6a4.31,4.31,0,0,1-.46-4.34c.26-.53.53-.77.58-.74a8.81,8.81,0,0,0-.42,2.92A8.5,8.5,0,0,0,276.18,352.07Z" style="fill: rgb(69, 90, 100); transform-origin: 275.398px 349.233px;" id="elyc8booyjvj" class="animable"></path><path d="M274.88,357.7c-.06,0-.28-.22-.49-.72a4.41,4.41,0,0,1,.52-4c.32-.43.61-.62.65-.57a12,12,0,0,0-.89,2.58A11.78,11.78,0,0,0,274.88,357.7Z" style="fill: rgb(69, 90, 100); transform-origin: 274.845px 355.051px;" id="elohrptiniek" class="animable"></path><path d="M248.72,329.28a69.66,69.66,0,0,1,.15,8.59,70.47,70.47,0,0,1-.38,8.58,71.09,71.09,0,0,1-.14-8.59A71.65,71.65,0,0,1,248.72,329.28Z" style="fill: rgb(69, 90, 100); transform-origin: 248.609px 337.865px;" id="ele75uuhvgfvb" class="animable"></path><path d="M276.64,165.71c-1.24.69-2.9-.21-3.46-1.51a6.09,6.09,0,0,1,.12-4.16,17.34,17.34,0,0,0,1.11-4.09,6,6,0,0,0-4.05-5.93,5.65,5.65,0,0,0,.39-8.13,22.21,22.21,0,0,0-3.61-2.32,12.4,12.4,0,0,1-1.91-1.56,7.73,7.73,0,0,0,3.28.11,5.31,5.31,0,0,0,3.85-3.38,4.81,4.81,0,0,0-1.16-4.93,4.4,4.4,0,0,0-5-.73c-1.55.82-2.41,2.51-3.16,4.1-.24.49-.47,1-.7,1.47-2.19-2.9-4.25-5.89-7.63-6.91-3.06-.93-6.35.1-9.54-.13-2.32-.17-4.55-1-6.87-1.26s-5,.24-6.31,2.13c-.81,1.1-1.06,2.54-1.87,3.64-1.68,2.27-5.29,2.58-6.67,5-1.12,2-.26,4.53-.74,6.78-.52,2.44-2.53,4.22-4.18,6.09s-3.08,4.45-2.16,6.77c.81,2,3.19,3.14,4,5.19.56,1.5.15,3.17.12,4.77s.62,3.5,2.18,3.86l17.75,4.69c6.12,2.49,12.43,5,19,5s13.64-3.17,16.25-9.24a3.79,3.79,0,0,1-2.55-1.14A6.38,6.38,0,0,0,276.64,165.71Z" style="fill: rgb(38, 50, 56); transform-origin: 246.361px 153.278px;" id="elbts3hzc0dvs" class="animable"></path><path d="M262.08,171.28a81.79,81.79,0,0,0,3.58-13.73,28.71,28.71,0,0,0-1.13-14c-.25-.67-2.38-5.18-3.09-5.11-.51.05.8,4.26.54,4.7-2.46,4.23-3.13,9.32-2.74,14.21a64.59,64.59,0,0,0,2.84,13.95" style="fill: rgb(38, 50, 56); transform-origin: 262.597px 154.87px;" id="eleuj6etd8m8o" class="animable"></path><path d="M246.4,210.64c7.34-.16,15.67-16.2,15.67-16.2l.48-41.23c.39-11.87-6.2-22-18.08-22.05l-1.1.06a21.24,21.24,0,0,0-20.09,20.63c-.28,10.29-.45,21.67-.09,27.16.75,11.37,12.23,12.53,12.23,12.53s.06,2.64.1,6c.08,7.51,7.94,13.36,10.88,13.11Z" style="fill: rgb(255, 190, 157); transform-origin: 242.776px 170.909px;" id="elk4jx1fbrq3b" class="animable"></path><path d="M235.42,191.54A27.49,27.49,0,0,0,250,186.37s-3.17,8.47-14.58,8Z" style="fill: rgb(235, 153, 110); transform-origin: 242.71px 190.379px;" id="el5aree5twyoy" class="animable"></path><path d="M228.19,160.78a1.64,1.64,0,0,0,1.66,1.56,1.56,1.56,0,0,0,1.59-1.56,1.61,1.61,0,0,0-1.65-1.55A1.56,1.56,0,0,0,228.19,160.78Z" style="fill: rgb(38, 50, 56); transform-origin: 229.815px 160.785px;" id="ellrqourw5vlc" class="animable"></path><path d="M226,156.44c.21.21,1.39-.77,3.14-.86s3.08.72,3.26.49-.14-.47-.72-.85a4.45,4.45,0,0,0-2.62-.65,4.24,4.24,0,0,0-2.49,1C226,156,225.86,156.35,226,156.44Z" style="fill: rgb(38, 50, 56); transform-origin: 229.2px 155.515px;" id="elko4kqwhuu59" class="animable"></path><path d="M244,160.36a1.62,1.62,0,0,0,1.65,1.56,1.56,1.56,0,0,0,1.6-1.56,1.63,1.63,0,0,0-1.65-1.55A1.55,1.55,0,0,0,244,160.36Z" style="fill: rgb(38, 50, 56); transform-origin: 245.625px 160.365px;" id="elxv9ufvrj9cc" class="animable"></path><path d="M243.13,156.23c.22.2,1.4-.77,3.15-.86s3.08.71,3.26.49-.14-.47-.72-.85a4.45,4.45,0,0,0-2.62-.65,4.24,4.24,0,0,0-2.49.95C243.19,155.75,243,156.14,243.13,156.23Z" style="fill: rgb(38, 50, 56); transform-origin: 246.34px 155.304px;" id="els3zdrujbsdb" class="animable"></path><path d="M237.58,170a11.53,11.53,0,0,0-2.87-.36c-.44,0-.87-.09-1-.39a2.19,2.19,0,0,1,.22-1.34c.37-1.1.74-2.26,1.14-3.47,1.58-4.94,2.69-9,2.49-9.06s-1.64,3.9-3.21,8.84q-.57,1.82-1.08,3.48a2.64,2.64,0,0,0-.14,1.77,1.11,1.11,0,0,0,.77.61,2.65,2.65,0,0,0,.76.07A11.4,11.4,0,0,0,237.58,170Z" style="fill: rgb(38, 50, 56); transform-origin: 235.311px 162.782px;" id="elm3sek62wkkg" class="animable"></path><path d="M242.79,170.94c-.28,0-.18,1.9-1.74,3.33s-3.58,1.34-3.58,1.6.47.35,1.32.33a4.8,4.8,0,0,0,3-1.23,4.11,4.11,0,0,0,1.34-2.79C243.16,171.38,242.92,170.92,242.79,170.94Z" style="fill: rgb(38, 50, 56); transform-origin: 240.301px 173.571px;" id="elg2fjji6ynzc" class="animable"></path><path d="M242.85,149.13c.2.47,1.93.15,4,.29s3.75.6,4,.16c.11-.21-.2-.64-.89-1.06a6.59,6.59,0,0,0-3-.88,6.7,6.7,0,0,0-3.09.53C243.12,148.52,242.76,148.91,242.85,149.13Z" style="fill: rgb(38, 50, 56); transform-origin: 246.854px 148.696px;" id="eldgc941gv8n7" class="animable"></path><path d="M226.38,150.59c.33.38,1.51-.09,3-.19s2.69.12,2.95-.31c.11-.21-.1-.59-.66-.94a4.31,4.31,0,0,0-4.76.4C226.38,150,226.23,150.41,226.38,150.59Z" style="fill: rgb(38, 50, 56); transform-origin: 229.342px 149.676px;" id="elm1kwqkhze4" class="animable"></path><path d="M262.07,161.69c.19-.1,7.7-2.73,7.87,5.06s-7.69,6.35-7.71,6.13S262.07,161.69,262.07,161.69Z" style="fill: rgb(255, 190, 157); transform-origin: 266.006px 167.154px;" id="elijzh9i1k73g" class="animable"></path><path d="M264.54,169.88s.14.09.37.19a1.36,1.36,0,0,0,1,0c.82-.32,1.48-1.64,1.49-3a4.56,4.56,0,0,0-.42-1.93,1.59,1.59,0,0,0-1.05-1,.7.7,0,0,0-.79.39c-.1.22-.05.38-.09.39s-.17-.12-.11-.45a.85.85,0,0,1,.29-.49,1,1,0,0,1,.75-.22,1.91,1.91,0,0,1,1.44,1.18A4.48,4.48,0,0,1,268,167c0,1.57-.79,3.06-1.91,3.41a1.42,1.42,0,0,1-1.24-.18C264.56,170.07,264.52,169.89,264.54,169.88Z" style="fill: rgb(235, 153, 110); transform-origin: 266.268px 167.116px;" id="elnpj66cesrh" class="animable"></path><path d="M228.16,138.87c-1.27-.68,2.46-4.81,5.54-6.26,4.66-2.18,11.8-3.58,16.14-2.41,5.22,1.41,9.57,3.94,12.24,8.64a30.59,30.59,0,0,1,3.64,15.61,9.25,9.25,0,0,1-1,4.77c-1.07,1.74-3.15,2.85-3,5.23a3.27,3.27,0,0,1-.78,2.39c-1.41,1.53-3.17.13-4-1.29-1.75-3-2-6.67-2.19-10.17a22.79,22.79,0,0,1,.4-7.42c.36-1.3,1-2.54,1.25-3.86a4.62,4.62,0,0,0-.6-3.88,4.25,4.25,0,0,0-.64-.63,8.13,8.13,0,0,0-8.08-1.44c-4.37,1.61-11.84,4-13.82,2.56-2.84-2.1-3.53-3.49-3.53-3.49Z" style="fill: rgb(38, 50, 56); transform-origin: 246.822px 148.641px;" id="elmnrcbrmqitl" class="animable"></path><path d="M249.41,129.14a17.1,17.1,0,0,0-13.15.9,8.91,8.91,0,0,0-4.64,5.23c-.62,2.32.4,5.15,2.64,6l.15.1c3.34,1.07,5.5.6,8.8-.59,2.78-1,5.23-2.76,8-3.74a15.73,15.73,0,0,1,9.26-.39A25.76,25.76,0,0,0,249.41,129.14Z" style="fill: rgb(38, 50, 56); transform-origin: 245.956px 135.1px;" id="el90b6iezskjo" class="animable"></path><path d="M264.24,136.85c-.07.06-.7-.69-2-1.56a11.35,11.35,0,0,0-2.37-1.27,7.28,7.28,0,0,0-3.17-.53,10.63,10.63,0,0,0-5.43,2.24c-1.21,1-1.77,1.76-1.84,1.7s.08-.24.34-.6a8.38,8.38,0,0,1,1.26-1.38A10.1,10.1,0,0,1,256.7,133a7.39,7.39,0,0,1,3.39.6A10.57,10.57,0,0,1,262.5,135,6,6,0,0,1,264.24,136.85Z" style="fill: rgb(69, 90, 100); transform-origin: 256.826px 135.21px;" id="eln33ghnuwn" class="animable"></path><path d="M265,139.61a6.31,6.31,0,0,1-.59,2.23,16.15,16.15,0,0,1-7.27,8.19,6.63,6.63,0,0,1-2.14.86,20.1,20.1,0,0,0,10-11.28Z" style="fill: rgb(69, 90, 100); transform-origin: 260px 145.25px;" id="elx4l11o3xlwk" class="animable"></path><path d="M268.19,140.88a2.87,2.87,0,0,1,0,.88,15,15,0,0,1-.34,2.4,16.29,16.29,0,0,1-10.13,11.62,14.6,14.6,0,0,1-2.33.66,2.77,2.77,0,0,1-.88.09c0-.09,1.22-.31,3.07-1.1a17.13,17.13,0,0,0,9.91-11.36C268.05,142.13,268.09,140.87,268.19,140.88Z" style="fill: rgb(69, 90, 100); transform-origin: 261.367px 148.707px;" id="elyhhfnpigixn" class="animable"></path><path d="M240.49,128.43a19.13,19.13,0,0,1-2.07.78,17.4,17.4,0,0,0-4.51,2.67,17,17,0,0,0-3.48,3.92c-.74,1.14-1.08,1.91-1.16,1.88a5.85,5.85,0,0,1,.84-2.07,14.66,14.66,0,0,1,3.47-4.13,14.5,14.5,0,0,1,4.72-2.61A6.21,6.21,0,0,1,240.49,128.43Z" style="fill: rgb(69, 90, 100); transform-origin: 234.88px 133.055px;" id="eldt4fyfz6v8c" class="animable"></path><path d="M270.63,129.41a7.44,7.44,0,0,1-2,4.34,7.52,7.52,0,0,1-3.93,2.7,22.16,22.16,0,0,0,3.54-3A21.37,21.37,0,0,0,270.63,129.41Z" style="fill: rgb(69, 90, 100); transform-origin: 267.665px 132.93px;" id="el6j0u323ac8h" class="animable"></path><path d="M185,242.85,174.44,264a15.43,15.43,0,0,0-1.6,7.61h0a15.39,15.39,0,0,0,15.37,14.64l30.15-1.75,1.32-13.76-22.94-5.53,8.69-16.44Z" style="fill: rgb(255, 190, 157); transform-origin: 196.251px 264.55px;" id="eln0fxqufruh" class="animable"></path><path d="M213.78,270.69h5.9s13.32-4.81,16.06-4.35c2.47.41,11.5,6.41,13.27,7.6a1.18,1.18,0,0,1,.43.55h0a1.94,1.94,0,0,1-1.08,2.46l-.19.07.08.27a3.24,3.24,0,0,1,.14,1.08,1.3,1.3,0,0,1-2.42.56l.34.61a1.52,1.52,0,0,1,.19.81l0,.55a1.48,1.48,0,0,1-1,1.32h0a1.47,1.47,0,0,1-1.55-.4c-1.15-1.26-3.62-3.79-5.3-4.07a39.94,39.94,0,0,0-5.46-.27,1.83,1.83,0,0,0-1.72,1.18h0c1,.07,7.91,3.68,10.36,5a2.59,2.59,0,0,1,1.42,2c.09.76-.29,1.57-1.81,1.21a67.28,67.28,0,0,1-9.11-3.45s-3-.86-5,.52c-2.75,1.94-4,2.65-6.38,1.87a20.3,20.3,0,0,1-4.1-1.91l-4.66-.46S207.76,272.38,213.78,270.69Z" style="fill: rgb(255, 190, 157); transform-origin: 230.089px 276.634px;" id="elpfmc16ob3s" class="animable"></path><path d="M231.37,272.94a25.19,25.19,0,0,1,2.5-.35,12.94,12.94,0,0,1,10.77,4.6c1,1.19,1.43,2.07,1.48,2.05a3.77,3.77,0,0,0-.3-.62,10.6,10.6,0,0,0-1-1.54,12.49,12.49,0,0,0-10.91-4.66,10.28,10.28,0,0,0-1.84.31A3,3,0,0,0,231.37,272.94Z" style="fill: rgb(235, 153, 110); transform-origin: 238.745px 275.804px;" id="elqfgrx3usaxa" class="animable"></path><path d="M232.78,269.71a10.46,10.46,0,0,1,2.6-.46,11.33,11.33,0,0,1,6.06,1.72,24.44,24.44,0,0,1,4.88,4.13l1.34,1.42a3.21,3.21,0,0,0,.51.5,4.2,4.2,0,0,0-.44-.57c-.29-.35-.72-.86-1.28-1.47a22.39,22.39,0,0,0-4.88-4.23,11.16,11.16,0,0,0-6.2-1.68,7.45,7.45,0,0,0-1.93.36c-.22.06-.38.15-.5.19S232.77,269.7,232.78,269.71Z" style="fill: rgb(235, 153, 110); transform-origin: 240.474px 273.043px;" id="elq8o4e5c1lhh" class="animable"></path><path d="M196.74,265.16c0,.09-1.05-.08-2.71-.07a21,21,0,0,0-6.36,1.13,19.13,19.13,0,0,0-5.7,3c-1.3,1-1.92,1.87-2,1.82s.11-.25.38-.64a9.58,9.58,0,0,1,1.38-1.46,17.12,17.12,0,0,1,5.76-3.24,18.27,18.27,0,0,1,6.53-1,12.88,12.88,0,0,1,2,.23A2.48,2.48,0,0,1,196.74,265.16Z" style="fill: rgb(235, 153, 110); transform-origin: 188.346px 267.867px;" id="elp82nhv8e3ul" class="animable"></path><path d="M313.77,239.21s6.59,19,13.7,36.59a8.24,8.24,0,0,1,.34,1.1,7.72,7.72,0,0,1-7.65,9.23H278.62V272.76l25.58-5.43-9.26-20.56Z" style="fill: rgb(255, 190, 157); transform-origin: 303.29px 262.67px;" id="elgnloyeuqbpu" class="animable"></path><path d="M287.27,271.11h-5.9s-13.32-4.81-16.06-4.35c-2.47.41-11.5,6.41-13.27,7.6a1.09,1.09,0,0,0-.43.54h0a1.94,1.94,0,0,0,1.08,2.46l.19.08-.09.27a3.21,3.21,0,0,0-.13,1.08,1.3,1.3,0,0,0,2.42.56l-.34.6a1.45,1.45,0,0,0-.19.81l0,.55a1.48,1.48,0,0,0,1,1.33h0a1.48,1.48,0,0,0,1.55-.41c1.15-1.26,3.62-3.78,5.29-4.06a38.48,38.48,0,0,1,5.47-.27,1.85,1.85,0,0,1,1.72,1.18h0c-1,.07-7.91,3.68-10.36,5a2.62,2.62,0,0,0-1.43,2c-.09.77.3,1.57,1.82,1.22a67.28,67.28,0,0,0,9.11-3.45s3-.87,5,.51c2.76,1.95,4,2.66,6.38,1.87a19.91,19.91,0,0,0,4.11-1.9l4.66-.47S293.29,272.8,287.27,271.11Z" style="fill: rgb(255, 190, 157); transform-origin: 270.963px 277.057px;" id="eltlkx7i7cr3r" class="animable"></path><path d="M269.68,273.36a25.19,25.19,0,0,0-2.5-.35,12.91,12.91,0,0,0-10.77,4.6c-1,1.19-1.43,2.07-1.48,2a3,3,0,0,1,.3-.61,10.93,10.93,0,0,1,1-1.55,12.59,12.59,0,0,1,10.92-4.66,11.1,11.1,0,0,1,1.84.32A2.59,2.59,0,0,1,269.68,273.36Z" style="fill: rgb(235, 153, 110); transform-origin: 262.305px 276.178px;" id="elg09lb8gxxxh" class="animable"></path><path d="M268.27,270.12a11,11,0,0,0-2.61-.45,11.39,11.39,0,0,0-6.05,1.71,24.54,24.54,0,0,0-4.89,4.13l-1.33,1.43a5.07,5.07,0,0,1-.51.5,3.53,3.53,0,0,1,.43-.57c.3-.35.73-.86,1.28-1.48a22.46,22.46,0,0,1,4.89-4.22,11.06,11.06,0,0,1,6.19-1.68,7.13,7.13,0,0,1,1.94.36,3,3,0,0,1,.49.19Z" style="fill: rgb(235, 153, 110); transform-origin: 260.575px 273.463px;" id="ela1ti9e0ewzu" class="animable"></path><path d="M320.47,271.26c-.05.07-.86-.57-2.28-1.38a21.25,21.25,0,0,0-12.27-2.78c-1.64.12-2.64.35-2.66.26a2.09,2.09,0,0,1,.68-.25,13.8,13.8,0,0,1,1.94-.38,18.84,18.84,0,0,1,12.5,2.83,13.35,13.35,0,0,1,1.59,1.18C320.31,271.05,320.5,271.23,320.47,271.26Z" style="fill: rgb(235, 153, 110); transform-origin: 311.867px 268.925px;" id="el5q3c9wonmhp" class="animable"></path></g><g id="freepik--Desk--inject-87" class="animable" style="transform-origin: 249.85px 356.325px;"><rect x="73.46" y="286.65" width="352.78" height="6.73" style="fill: rgb(69, 90, 100); transform-origin: 249.85px 290.015px;" id="elwidsaefmg5j" class="animable"></rect><polygon points="87.79 475.29 82.96 475.29 82.96 292.93 93.29 292.93 87.79 475.29" style="fill: rgb(69, 90, 100); transform-origin: 88.125px 384.11px;" id="elhmf3adkgy1" class="animable"></polygon><polygon points="149.92 475.2 145.1 475.2 145.1 293.06 155.43 293.06 149.92 475.2" style="fill: rgb(38, 50, 56); transform-origin: 150.265px 384.13px;" id="el38ih7ytxhad" class="animable"></polygon><polygon points="352.34 475 347.51 475 347.51 293.08 357.84 293.08 352.34 475" style="fill: rgb(38, 50, 56); transform-origin: 352.675px 384.04px;" id="el2q7muqvsjfs" class="animable"></polygon><polygon points="404.35 475.2 399.52 475.2 399.52 293 409.85 293 404.35 475.2" style="fill: rgb(69, 90, 100); transform-origin: 404.685px 384.1px;" id="elr8mtrwp9ryr" class="animable"></polygon><path d="M278.88,286.58H216.93a3.3,3.3,0,0,1-3.29-3.14l-1.86-42.65a3.29,3.29,0,0,1,3.29-3.43h65.55a3.3,3.3,0,0,1,3.29,3.42l-1.74,42.65A3.28,3.28,0,0,1,278.88,286.58Z" style="fill: rgb(224, 224, 224); transform-origin: 247.845px 261.97px;" id="elm6bosngv5ja" class="animable"></path><path d="M251.23,262.72a3.39,3.39,0,1,1-3.39-3.39A3.4,3.4,0,0,1,251.23,262.72Z" style="fill: rgb(255, 255, 255); transform-origin: 247.84px 262.72px;" id="el1o289gnxhas" class="animable"></path></g><g id="freepik--Lamp--inject-87" class="animable" style="transform-origin: 351.18px 217.245px;"><path d="M396.27,211.21a2.57,2.57,0,1,1,5.08.77l-11.26,68.75h-5.15Z" style="fill: rgb(38, 50, 56); transform-origin: 393.165px 244.842px;" id="elftuqr2ufvja" class="animable"></path><path d="M400.29,212.06l-46.44-51-.34.56-2.25,3.73,45.22,50.18a2.57,2.57,0,0,0,3.81-3.45Z" style="fill: rgb(38, 50, 56); transform-origin: 376.102px 188.712px;" id="elpwufx3esbif" class="animable"></path><path d="M396.88,213.38s-.08-.11-.06-.32a1.17,1.17,0,0,1,.42-.79,1.38,1.38,0,0,1,1.35-.26,1.44,1.44,0,0,1,0,2.73,1.41,1.41,0,0,1-1.35-.25,1.17,1.17,0,0,1-.42-.79c0-.21,0-.32.06-.32s.08.47.59.82a1,1,0,0,0,.95.09,1,1,0,0,0,.62-.91,1,1,0,0,0-.62-.92,1,1,0,0,0-.95.1C397,212.9,397,213.4,396.88,213.38Z" style="fill: rgb(69, 90, 100); transform-origin: 398.194px 213.375px;" id="el92w0j2nv9g" class="animable"></path><path d="M397.58,209.09a6.68,6.68,0,0,1,1.4,1.28,19.23,19.23,0,0,1,1.4,1.54,3.21,3.21,0,0,1,.73,2.53,2.59,2.59,0,0,1-1.89,1.86,2.79,2.79,0,0,1-2.14-.3,3.28,3.28,0,0,1-1.37-1.34c.06-.08.55.5,1.55,1a2.43,2.43,0,0,0,1.82.17,2.15,2.15,0,0,0,1.52-1.51,2.87,2.87,0,0,0-.61-2.14c-.43-.6-.92-1.12-1.28-1.57A6.93,6.93,0,0,1,397.58,209.09Z" style="fill: rgb(69, 90, 100); transform-origin: 398.426px 212.741px;" id="eloi9fhthtrr8" class="animable"></path><path d="M364.56,286.8h42.28s-5.4-6.73-19.47-6.73C374.26,280.07,366.45,283.92,364.56,286.8Z" style="fill: rgb(38, 50, 56); transform-origin: 385.7px 283.435px;" id="ell6ta4bm8z3" class="animable"></path><polygon points="354.12 152.96 356.27 149.73 353.61 147.69 351.33 150.94 354.12 152.96" style="fill: rgb(38, 50, 56); transform-origin: 353.8px 150.325px;" id="el9ux9wh4rirb" class="animable"></polygon><path d="M357.76,154.9l-9.26-6.71-8.88,10.69C324.21,161.36,318,171.05,318,171.05l27.58,21.12c9.44-10.43,5-25.34,5-25.34Z" style="fill: rgb(152, 174, 218); transform-origin: 337.88px 170.18px;" id="el39w7hi5iv91" class="animable"></path><path d="M350.55,166.83a44.39,44.39,0,0,1-5.62-3.76,45.3,45.3,0,0,1-5.31-4.19,44.39,44.39,0,0,1,5.62,3.76A43.13,43.13,0,0,1,350.55,166.83Z" style="fill: rgb(38, 50, 56); transform-origin: 345.085px 162.855px;" id="el11ib3eq4irqb" class="animable"></path><path d="M316.82,178.4c.06.13-4.66,2.45-10.54,5.18s-10.7,4.83-10.76,4.7,4.66-2.45,10.54-5.18S316.76,178.27,316.82,178.4Z" style="fill: rgb(38, 50, 56); transform-origin: 306.17px 183.34px;" id="el58c0c0w3gqu" class="animable"></path><path d="M327.46,187.6c.11.1-3.53,4-8.11,8.71s-8.39,8.45-8.49,8.35,3.53-4,8.11-8.71S327.36,187.5,327.46,187.6Z" style="fill: rgb(38, 50, 56); transform-origin: 319.16px 196.13px;" id="elp95w9ip51zh" class="animable"></path><path d="M334.48,215.2c-.14,0,.15-4.74.66-10.56s1-10.53,1.18-10.51a104.44,104.44,0,0,1-.66,10.56C335.15,210.51,334.62,215.21,334.48,215.2Z" style="fill: rgb(38, 50, 56); transform-origin: 335.382px 204.665px;" id="eloj1glye96v9" class="animable"></path></g><g id="freepik--Floor--inject-87" class="animable" style="transform-origin: 250px 475.2px;"><path d="M479.2,475.2c0,.15-102.62.26-229.19.26S20.8,475.35,20.8,475.2s102.6-.26,229.21-.26S479.2,475.06,479.2,475.2Z" style="fill: rgb(38, 50, 56); transform-origin: 250px 475.2px;" id="el849wnl8lt16" class="animable"></path></g><g id="freepik--Files--inject-87" class="animable" style="transform-origin: 120.226px 119.019px;"><g id="eltcrxdhvwl1l"><rect x="149.02" y="66.89" width="26.86" height="21.47" style="fill: rgb(235, 235, 235); transform-origin: 162.45px 77.625px; transform: rotate(-1.69deg);" class="animable"></rect></g><path d="M175.56,66.5h-.51l-1.46.06-5.49.18-19.39.6.07-.07c.19,6.39.41,13.71.65,21.46h0l-.08-.07,26.84-.78-.06.07c-.18-6.47-.33-11.83-.43-15.57,0-1.88-.08-3.35-.11-4.35l0-1.15v-.4s0,.13,0,.39,0,.64,0,1.13c0,1,.08,2.47.14,4.34.12,3.75.29,9.12.5,15.6V88h-.07l-26.84.8h-.08v-.08h0c-.23-7.75-.44-15.08-.63-21.46v-.07h.07l19.43-.53,5.48-.15,1.45,0h.49Z" style="fill: rgb(38, 50, 56); transform-origin: 162.42px 77.64px;" id="elf2fb6hffsac" class="animable"></path><g id="elrdzmxzs1bf"><rect x="149.95" y="68.25" width="24.97" height="18.77" style="fill: rgb(152, 174, 218); transform-origin: 162.435px 77.635px; transform: rotate(-1.69deg);" class="animable"></rect></g><g id="elhw42aakuz56"><g style="opacity: 0.3; transform-origin: 162.71px 81.42px;" class="animable"><polygon points="150.23 87.38 158.61 75.46 164.22 82.6 167.77 78.59 175.19 86.64 150.23 87.38" id="el48hs16azihv" class="animable" style="transform-origin: 162.71px 81.42px;"></polygon></g></g><g id="el54bp34vqy2l"><g style="opacity: 0.3; transform-origin: 164.26px 73.802px;" class="animable"><path d="M166.26,73.8a2,2,0,0,1-1.91,2,2,2,0,1,1,1.91-2Z" id="elgwaf07arjjo" class="animable" style="transform-origin: 164.26px 73.802px;"></path></g></g><g id="elczu28xay7di"><rect x="125.93" y="84.03" width="40.58" height="32.44" style="fill: rgb(235, 235, 235); transform-origin: 146.22px 100.25px; transform: rotate(-9.93deg);" class="animable"></rect></g><path d="M163.41,80.78l-.19,0-.56.1-2.17.39-8.18,1.46-28.86,5.11.09-.12c1.67,9.51,3.58,20.41,5.61,31.95h0l-.14-.1,40-7-.08.11c-1.66-9.63-3-17.6-4-23.19-.48-2.79-.85-5-1.11-6.48-.13-.74-.22-1.32-.29-1.71l-.09-.59s0,.19.11.57.17,1,.31,1.69c.26,1.49.65,3.67,1.15,6.45l4.12,23.23,0,.09-.1,0-40,7-.11,0,0-.11h0c-2-11.54-3.93-22.44-5.59-31.95l0-.11.11,0,28.94-5,8.16-1.4,2.16-.37.55-.09Z" style="fill: rgb(38, 50, 56); transform-origin: 146.23px 100.225px;" id="elt03ak7hfvl" class="animable"></path><g id="elsvym0k58mc"><rect x="127.33" y="86.08" width="37.73" height="28.36" style="fill: rgb(152, 174, 218); transform-origin: 146.195px 100.26px; transform: rotate(-9.93deg);" class="animable"></rect></g><g id="elg44yoy0cm17"><g style="opacity: 0.4; transform-origin: 148.64px 107.66px;" class="animable"><polygon points="130.06 117.48 140 97.84 149.94 107.3 154.38 100.54 167.22 110.97 130.06 117.48" id="elmbrbpbig84" class="animable" style="transform-origin: 148.64px 107.66px;"></polygon></g></g><g id="elgiyxabq064n"><g style="opacity: 0.4; transform-origin: 148.131px 94.2596px;" class="animable"><path d="M151.08,93.71a3,3,0,1,1-3.44-2.41A3,3,0,0,1,151.08,93.71Z" id="elzbkbp1xayej" class="animable" style="transform-origin: 148.131px 94.2596px;"></path></g></g><path d="M80.56,137.9l6.24,23.93a1.66,1.66,0,0,0,1.93,1.22l43.61-8.54a1.66,1.66,0,0,0,1.31-1.95L130,133.69a1.68,1.68,0,0,0-2-1.31l-26.78,5.42a1.67,1.67,0,0,1-1.25-.24l-5.56-3.68a1.7,1.7,0,0,0-1.24-.25l-11.31,2.22A1.66,1.66,0,0,0,80.56,137.9Z" style="fill: rgb(152, 174, 218); transform-origin: 107.094px 147.712px;" id="el2y1j4j93jsu" class="animable"></path><g id="elx55wa97apl"><rect x="83.77" y="133.59" width="48.55" height="29.01" style="fill: rgb(245, 245, 245); transform-origin: 108.045px 148.095px; transform: rotate(-11.08deg);" class="animable"></rect></g><path d="M78.14,141.82l9.45,29a1.09,1.09,0,0,0,1.23.72l46.43-9.09a1.07,1.07,0,0,0,.86-1.18l-3.47-30.15a1.07,1.07,0,0,0-1.27-.93L79,140.43A1.08,1.08,0,0,0,78.14,141.82Z" style="fill: rgb(152, 174, 218); transform-origin: 107.104px 150.864px;" id="el9kbl1uiy0x" class="animable"></path><g id="elcmy6ekud2a"><g style="opacity: 0.3; transform-origin: 107.104px 150.864px;" class="animable"><path d="M78.14,141.82l9.45,29a1.09,1.09,0,0,0,1.23.72l46.43-9.09a1.07,1.07,0,0,0,.86-1.18l-3.47-30.15a1.07,1.07,0,0,0-1.27-.93L79,140.43A1.08,1.08,0,0,0,78.14,141.82Z" id="elc182ig97v89" class="animable" style="transform-origin: 107.104px 150.864px;"></path></g></g><path d="M96.84,115.29,65.71,103.9a2.34,2.34,0,0,1-1.13-3l7.73-20.22a2.31,2.31,0,0,1,2.74-1.55L106.22,90.8c1.09.41,1.21,1.58.8,2.67l-8.1,20.87A1.61,1.61,0,0,1,96.84,115.29Z" style="fill: rgb(250, 250, 250); transform-origin: 85.8187px 97.2303px;" id="elhgfcocw65uw" class="animable"></path><path d="M96.53,115.17a2.36,2.36,0,0,0,1.22,0,2.22,2.22,0,0,0,1.18-.85,3.6,3.6,0,0,0,.39-.86c.13-.32.25-.67.39-1,1.11-2.94,2.7-7.15,4.65-12.35.5-1.31,1-2.67,1.55-4.09l.83-2.18a7.12,7.12,0,0,0,.37-1.1,2,2,0,0,0-.15-1.09,1.83,1.83,0,0,0-.74-.84,9.34,9.34,0,0,0-1.14-.45l-2.42-.88L97.6,87.63,75.09,79.4a2,2,0,0,0-2.4,1l-1.12,2.9-2.19,5.72C68,92.79,66.56,96.4,65.24,99.84c-.17.43-.33.86-.49,1.28a2,2,0,0,0-.14,1.22,1.84,1.84,0,0,0,.6,1,3.16,3.16,0,0,0,1.12.54l4.76,1.76,8.55,3.15L92,113.43l3.36,1.27.86.34a1.79,1.79,0,0,1,.3.13,1.13,1.13,0,0,1-.31-.09l-.88-.3L92,113.58l-12.41-4.47L71,106l-4.77-1.73a3.54,3.54,0,0,1-1.23-.61,2.22,2.22,0,0,1-.72-1.23A2.4,2.4,0,0,1,64.4,101c.16-.43.32-.86.49-1.29L69,88.9c.71-1.87,1.44-3.78,2.18-5.71.37-1,.75-2,1.13-2.93A2.36,2.36,0,0,1,75.23,79l22.5,8.25,5,1.86,2.42.89a9.18,9.18,0,0,1,1.2.49,2.2,2.2,0,0,1,.87,1,2.39,2.39,0,0,1,.17,1.29,7.17,7.17,0,0,1-.39,1.16c-.29.74-.57,1.46-.84,2.17-.55,1.42-1.07,2.78-1.58,4.08l-4.77,12.3c-.14.37-.28.71-.4,1a3.79,3.79,0,0,1-.43.88,2.33,2.33,0,0,1-1.26.86,2.07,2.07,0,0,1-.94,0A.88.88,0,0,1,96.53,115.17Z" style="fill: rgb(152, 174, 218); transform-origin: 85.8186px 97.0776px;" id="elez453c6iuzu" class="animable"></path><polygon points="87.92 95.56 91.16 99.62 85.98 100.56 80.81 101.5 82.74 96.5 84.67 91.5 87.92 95.56" style="fill: rgb(152, 174, 218); transform-origin: 85.985px 96.5px;" id="elmctpcbucdo" class="animable"></polygon></g><g id="freepik--Cloud--inject-87" class="animable" style="transform-origin: 140.37px 218.62px;"><ellipse cx="112.82" cy="252.88" rx="0.26" ry="1.25" style="fill: rgb(38, 50, 56); transform-origin: 112.82px 252.88px;" id="elgfgtv54wz14" class="animable"></ellipse><path d="M112.82,265.41a15.42,15.42,0,0,1,0-5.64,15.42,15.42,0,0,1,0,5.64Z" style="fill: rgb(38, 50, 56); transform-origin: 112.82px 262.59px;" id="el0ben1zcpk5v" class="animable"></path><path d="M115.32,273.55a6.31,6.31,0,0,1-2.5.26l-.26-.26h0V273l0-.46c0-.3,0-.57,0-.8.05-.45.12-.73.19-.73s.13.28.18.73c0,.23,0,.5.06.8v.94h0l-.26-.26A6.11,6.11,0,0,1,115.32,273.55Z" style="fill: rgb(38, 50, 56); transform-origin: 113.94px 272.425px;" id="el3ya59dsxo6f" class="animable"></path><path d="M125.36,273.55a6.35,6.35,0,0,1-2.51.26,6.35,6.35,0,0,1-2.51-.26,6.14,6.14,0,0,1,2.51-.26A6.14,6.14,0,0,1,125.36,273.55Z" style="fill: rgb(38, 50, 56); transform-origin: 122.85px 273.548px;" id="elhfvang1pu8" class="animable"></path><path d="M135.41,273.55a12.25,12.25,0,0,1-5,0,12.25,12.25,0,0,1,5,0Z" style="fill: rgb(38, 50, 56); transform-origin: 132.91px 273.55px;" id="el5ingfhjqtvp" class="animable"></path><path d="M145.45,273.55a12.25,12.25,0,0,1-5,0,12.25,12.25,0,0,1,5,0Z" style="fill: rgb(38, 50, 56); transform-origin: 142.95px 273.55px;" id="el42lmy3b7m33" class="animable"></path><path d="M155.5,273.55a12.25,12.25,0,0,1-5,0,12.25,12.25,0,0,1,5,0Z" style="fill: rgb(38, 50, 56); transform-origin: 153px 273.55px;" id="elkmpxsdcs32n" class="animable"></path><path d="M165.55,273.55a12.29,12.29,0,0,1-5,0,12.29,12.29,0,0,1,5,0Z" style="fill: rgb(38, 50, 56); transform-origin: 163.05px 273.55px;" id="el7ame12zuq2i" class="animable"></path><path d="M175.59,273.55a12.25,12.25,0,0,1-5,0,12.25,12.25,0,0,1,5,0Z" style="fill: rgb(38, 50, 56); transform-origin: 173.09px 273.55px;" id="elanwac3nmwn" class="animable"></path><path d="M185.64,273.55a12.25,12.25,0,0,1-5,0,12.25,12.25,0,0,1,5,0Z" style="fill: rgb(38, 50, 56); transform-origin: 183.14px 273.55px;" id="el6xu31rvaikm" class="animable"></path><path d="M195.68,273.55a12.25,12.25,0,0,1-5,0,12.25,12.25,0,0,1,5,0Z" style="fill: rgb(38, 50, 56); transform-origin: 193.18px 273.55px;" id="els1pqvlm1do" class="animable"></path><path d="M205.73,273.55a12.25,12.25,0,0,1-5,0,12.25,12.25,0,0,1,5,0Z" style="fill: rgb(38, 50, 56); transform-origin: 203.23px 273.55px;" id="elc6s43qr5f97" class="animable"></path><path d="M213.25,273.55c0,.14-.56.26-1.25.26s-1.25-.12-1.25-.26.56-.26,1.25-.26S213.25,273.4,213.25,273.55Z" style="fill: rgb(38, 50, 56); transform-origin: 212px 273.55px;" id="el5dmqzbayh3" class="animable"></path><rect x="67.49" y="163.4" width="85.01" height="85.01" rx="6.79" style="fill: rgb(152, 174, 218); transform-origin: 109.995px 205.905px;" id="elfsilf0zm8ko" class="animable"></rect><path d="M125.9,223.85a9.16,9.16,0,0,0-4.9-17.66c.73-7.09-5.72-14.06-12.85-13.87s-13.21,7.49-12.09,14.54a8.39,8.39,0,0,0-.6,16.77Z" style="fill: rgb(255, 255, 255); transform-origin: 109.996px 208.083px;" id="elxnbxkynmoc" class="animable"></path></g><defs>     <filter id="active" height="200%">         <feMorphology in="SourceAlpha" result="DILATED" operator="dilate" radius="2"></feMorphology>                <feFlood flood-color="#32DFEC" flood-opacity="1" result="PINK"></feFlood>        <feComposite in="PINK" in2="DILATED" operator="in" result="OUTLINE"></feComposite>        <feMerge>            <feMergeNode in="OUTLINE"></feMergeNode>            <feMergeNode in="SourceGraphic"></feMergeNode>        </feMerge>    </filter>    <filter id="hover" height="200%">        <feMorphology in="SourceAlpha" result="DILATED" operator="dilate" radius="2"></feMorphology>                <feFlood flood-color="#ff0000" flood-opacity="0.5" result="PINK"></feFlood>        <feComposite in="PINK" in2="DILATED" operator="in" result="OUTLINE"></feComposite>        <feMerge>            <feMergeNode in="OUTLINE"></feMergeNode>            <feMergeNode in="SourceGraphic"></feMergeNode>        </feMerge>            <feColorMatrix type="matrix" values="0   0   0   0   0                0   1   0   0   0                0   0   0   0   0                0   0   0   1   0 "></feColorMatrix>    </filter></defs></svg>